<svg version="1.0" preserveAspectRatio="xMidYMid meet" height="262" viewBox="0 0 764.25 196.499994" zoomAndPan="magnify" width="1019" xmlns:xlink="http://www.w3.org/1999/xlink" xmlns="http://www.w3.org/2000/svg"><defs><clipPath id="c7de13b73f"><path clip-rule="nonzero" d="M 63 39.933594 L 258 39.933594 L 258 147.660156 L 63 147.660156 Z M 63 39.933594"></path></clipPath><clipPath id="9978237488"><path clip-rule="nonzero" d="M 27.289062 57 L 99 57 L 99 130 L 27.289062 130 Z M 27.289062 57"></path></clipPath><clipPath id="c6ded147d0"><path clip-rule="nonzero" d="M 306 39.933594 L 501 39.933594 L 501 147.660156 L 306 147.660156 Z M 306 39.933594"></path></clipPath><clipPath id="baf10e2727"><path clip-rule="nonzero" d="M 548 39.933594 L 743.214844 39.933594 L 743.214844 147.660156 L 548 147.660156 Z M 548 39.933594"></path></clipPath></defs><g clip-path="url(#c7de13b73f)"><path fill-rule="nonzero" fill-opacity="1" d="M 63.332031 39.957031 L 63.332031 147.902344 L 213.914062 147.902344 L 257.640625 93.929688 L 213.914062 39.957031 Z M 63.332031 39.957031" fill="#f2f3f5"></path></g><g clip-path="url(#9978237488)"><path fill-rule="nonzero" fill-opacity="1" d="M 98.902344 93.648438 C 98.902344 94.820312 98.84375 95.988281 98.730469 97.15625 C 98.613281 98.324219 98.441406 99.480469 98.214844 100.632812 C 97.984375 101.78125 97.699219 102.917969 97.359375 104.039062 C 97.019531 105.164062 96.625 106.265625 96.175781 107.347656 C 95.726562 108.433594 95.226562 109.492188 94.675781 110.527344 C 94.121094 111.558594 93.519531 112.566406 92.867188 113.539062 C 92.214844 114.515625 91.519531 115.457031 90.773438 116.363281 C 90.03125 117.269531 89.242188 118.136719 88.414062 118.964844 C 87.585938 119.796875 86.71875 120.582031 85.8125 121.328125 C 84.90625 122.070312 83.964844 122.769531 82.988281 123.417969 C 82.011719 124.070312 81.007812 124.671875 79.972656 125.226562 C 78.941406 125.777344 77.882812 126.28125 76.796875 126.730469 C 75.714844 127.175781 74.613281 127.570312 73.488281 127.914062 C 72.367188 128.253906 71.230469 128.539062 70.082031 128.765625 C 68.929688 128.996094 67.773438 129.167969 66.605469 129.28125 C 65.4375 129.398438 64.265625 129.453125 63.09375 129.453125 C 61.921875 129.453125 60.753906 129.398438 59.585938 129.28125 C 58.417969 129.167969 57.257812 128.996094 56.109375 128.765625 C 54.957031 128.539062 53.824219 128.253906 52.699219 127.914062 C 51.578125 127.570312 50.476562 127.175781 49.390625 126.730469 C 48.308594 126.28125 47.25 125.777344 46.214844 125.226562 C 45.179688 124.671875 44.175781 124.070312 43.199219 123.417969 C 42.226562 122.769531 41.285156 122.070312 40.378906 121.328125 C 39.472656 120.582031 38.605469 119.796875 37.773438 118.964844 C 36.945312 118.136719 36.160156 117.269531 35.414062 116.363281 C 34.671875 115.457031 33.972656 114.515625 33.320312 113.539062 C 32.671875 112.566406 32.066406 111.558594 31.515625 110.527344 C 30.960938 109.492188 30.460938 108.433594 30.011719 107.347656 C 29.5625 106.265625 29.167969 105.164062 28.828125 104.039062 C 28.488281 102.917969 28.203125 101.78125 27.976562 100.632812 C 27.746094 99.480469 27.574219 98.324219 27.460938 97.15625 C 27.34375 95.988281 27.289062 94.820312 27.289062 93.648438 C 27.289062 92.472656 27.34375 91.304688 27.460938 90.136719 C 27.574219 88.96875 27.746094 87.8125 27.976562 86.660156 C 28.203125 85.511719 28.488281 84.375 28.828125 83.253906 C 29.167969 82.128906 29.5625 81.027344 30.011719 79.945312 C 30.460938 78.859375 30.960938 77.800781 31.515625 76.765625 C 32.066406 75.734375 32.671875 74.726562 33.320312 73.753906 C 33.972656 72.777344 34.671875 71.835938 35.414062 70.929688 C 36.160156 70.023438 36.945312 69.15625 37.773438 68.328125 C 38.605469 67.496094 39.472656 66.710938 40.378906 65.96875 C 41.285156 65.222656 42.226562 64.523438 43.199219 63.875 C 44.175781 63.222656 45.179688 62.621094 46.214844 62.066406 C 47.25 61.515625 48.308594 61.011719 49.390625 60.566406 C 50.476562 60.117188 51.578125 59.722656 52.699219 59.378906 C 53.824219 59.039062 54.957031 58.753906 56.109375 58.527344 C 57.257812 58.296875 58.417969 58.125 59.585938 58.011719 C 60.753906 57.894531 61.921875 57.839844 63.09375 57.839844 C 64.265625 57.839844 65.4375 57.894531 66.605469 58.011719 C 67.773438 58.125 68.929688 58.296875 70.082031 58.527344 C 71.230469 58.753906 72.367188 59.039062 73.488281 59.378906 C 74.613281 59.722656 75.714844 60.117188 76.796875 60.566406 C 77.882812 61.011719 78.941406 61.515625 79.972656 62.066406 C 81.007812 62.621094 82.011719 63.222656 82.988281 63.875 C 83.964844 64.523438 84.90625 65.222656 85.8125 65.96875 C 86.71875 66.710938 87.585938 67.496094 88.414062 68.328125 C 89.242188 69.15625 90.03125 70.023438 90.773438 70.929688 C 91.519531 71.835938 92.214844 72.777344 92.867188 73.753906 C 93.519531 74.726562 94.121094 75.734375 94.675781 76.765625 C 95.226562 77.800781 95.726562 78.859375 96.175781 79.945312 C 96.625 81.027344 97.019531 82.128906 97.359375 83.253906 C 97.699219 84.375 97.984375 85.511719 98.214844 86.660156 C 98.441406 87.8125 98.613281 88.96875 98.730469 90.136719 C 98.84375 91.304688 98.902344 92.472656 98.902344 93.648438 Z M 98.902344 93.648438" fill="#dcdde0"></path></g><path fill-rule="nonzero" fill-opacity="1" d="M 92.027344 93.648438 C 92.027344 94.59375 91.980469 95.539062 91.886719 96.480469 C 91.792969 97.425781 91.65625 98.363281 91.46875 99.289062 C 91.285156 100.21875 91.054688 101.136719 90.78125 102.042969 C 90.503906 102.953125 90.1875 103.84375 89.824219 104.71875 C 89.460938 105.59375 89.054688 106.449219 88.609375 107.285156 C 88.164062 108.121094 87.675781 108.933594 87.148438 109.71875 C 86.625 110.507812 86.058594 111.269531 85.457031 112 C 84.855469 112.734375 84.222656 113.433594 83.550781 114.105469 C 82.882812 114.773438 82.179688 115.410156 81.449219 116.011719 C 80.714844 116.613281 79.957031 117.175781 79.167969 117.703125 C 78.378906 118.226562 77.566406 118.714844 76.734375 119.160156 C 75.898438 119.609375 75.042969 120.011719 74.167969 120.375 C 73.289062 120.738281 72.398438 121.054688 71.492188 121.332031 C 70.585938 121.605469 69.667969 121.835938 68.738281 122.019531 C 67.808594 122.207031 66.875 122.34375 65.929688 122.4375 C 64.988281 122.53125 64.042969 122.578125 63.09375 122.578125 C 62.148438 122.578125 61.203125 122.53125 60.257812 122.4375 C 59.316406 122.34375 58.378906 122.207031 57.449219 122.019531 C 56.519531 121.835938 55.601562 121.605469 54.695312 121.332031 C 53.789062 121.054688 52.898438 120.738281 52.023438 120.375 C 51.148438 120.011719 50.292969 119.609375 49.457031 119.160156 C 48.621094 118.714844 47.808594 118.226562 47.023438 117.703125 C 46.234375 117.175781 45.472656 116.613281 44.742188 116.011719 C 44.007812 115.410156 43.308594 114.773438 42.636719 114.105469 C 41.96875 113.433594 41.332031 112.734375 40.730469 112 C 40.128906 111.269531 39.566406 110.507812 39.039062 109.71875 C 38.511719 108.933594 38.027344 108.121094 37.582031 107.285156 C 37.132812 106.449219 36.730469 105.59375 36.367188 104.71875 C 36.003906 103.84375 35.683594 102.953125 35.410156 102.042969 C 35.136719 101.136719 34.90625 100.21875 34.71875 99.289062 C 34.535156 98.363281 34.394531 97.425781 34.304688 96.480469 C 34.210938 95.539062 34.164062 94.59375 34.164062 93.648438 C 34.164062 92.699219 34.210938 91.753906 34.304688 90.8125 C 34.394531 89.867188 34.535156 88.933594 34.71875 88.003906 C 34.90625 87.074219 35.136719 86.15625 35.410156 85.25 C 35.683594 84.339844 36.003906 83.449219 36.367188 82.574219 C 36.730469 81.699219 37.132812 80.84375 37.582031 80.007812 C 38.027344 79.171875 38.511719 78.363281 39.039062 77.574219 C 39.566406 76.785156 40.128906 76.027344 40.730469 75.292969 C 41.332031 74.5625 41.96875 73.859375 42.636719 73.191406 C 43.308594 72.519531 44.007812 71.882812 44.742188 71.28125 C 45.472656 70.683594 46.234375 70.117188 47.023438 69.589844 C 47.808594 69.066406 48.621094 68.578125 49.457031 68.132812 C 50.292969 67.683594 51.148438 67.28125 52.023438 66.917969 C 52.898438 66.554688 53.789062 66.238281 54.695312 65.960938 C 55.601562 65.6875 56.519531 65.457031 57.449219 65.273438 C 58.378906 65.085938 59.316406 64.949219 60.257812 64.855469 C 61.203125 64.761719 62.148438 64.714844 63.09375 64.714844 C 64.042969 64.714844 64.988281 64.761719 65.929688 64.855469 C 66.875 64.949219 67.808594 65.085938 68.738281 65.273438 C 69.667969 65.457031 70.585938 65.6875 71.492188 65.960938 C 72.398438 66.238281 73.289062 66.554688 74.167969 66.917969 C 75.042969 67.28125 75.898438 67.683594 76.734375 68.132812 C 77.566406 68.578125 78.378906 69.066406 79.167969 69.589844 C 79.957031 70.117188 80.714844 70.683594 81.449219 71.28125 C 82.179688 71.882812 82.882812 72.519531 83.550781 73.191406 C 84.222656 73.859375 84.855469 74.5625 85.457031 75.292969 C 86.058594 76.027344 86.625 76.785156 87.148438 77.574219 C 87.675781 78.363281 88.164062 79.171875 88.609375 80.007812 C 89.054688 80.84375 89.460938 81.699219 89.824219 82.574219 C 90.1875 83.449219 90.503906 84.339844 90.78125 85.25 C 91.054688 86.15625 91.285156 87.074219 91.46875 88.003906 C 91.65625 88.933594 91.792969 89.867188 91.886719 90.8125 C 91.980469 91.753906 92.027344 92.699219 92.027344 93.648438 Z M 92.027344 93.648438" fill="#f7b128"></path><g clip-path="url(#c6ded147d0)"><path fill-rule="nonzero" fill-opacity="1" d="M 306.160156 39.957031 L 306.160156 147.902344 L 456.742188 147.902344 L 500.46875 93.929688 L 456.742188 39.957031 Z M 306.160156 39.957031" fill="#f2f3f5"></path></g><path fill-rule="nonzero" fill-opacity="1" d="M 341.730469 93.648438 C 341.730469 94.820312 341.671875 95.988281 341.558594 97.15625 C 341.441406 98.324219 341.269531 99.480469 341.042969 100.632812 C 340.8125 101.78125 340.527344 102.917969 340.1875 104.039062 C 339.847656 105.164062 339.453125 106.265625 339.003906 107.347656 C 338.554688 108.433594 338.054688 109.492188 337.503906 110.527344 C 336.949219 111.558594 336.347656 112.566406 335.695312 113.539062 C 335.042969 114.515625 334.347656 115.457031 333.601562 116.363281 C 332.859375 117.269531 332.070312 118.136719 331.242188 118.964844 C 330.414062 119.796875 329.546875 120.582031 328.640625 121.328125 C 327.730469 122.070312 326.792969 122.769531 325.816406 123.417969 C 324.839844 124.070312 323.835938 124.671875 322.800781 125.226562 C 321.769531 125.777344 320.710938 126.28125 319.625 126.730469 C 318.542969 127.175781 317.4375 127.570312 316.316406 127.914062 C 315.195312 128.253906 314.058594 128.539062 312.910156 128.765625 C 311.757812 128.996094 310.597656 129.167969 309.433594 129.28125 C 308.265625 129.398438 307.09375 129.453125 305.921875 129.453125 C 304.75 129.453125 303.578125 129.398438 302.414062 129.28125 C 301.246094 129.167969 300.085938 128.996094 298.9375 128.765625 C 297.785156 128.539062 296.652344 128.253906 295.527344 127.914062 C 294.40625 127.570312 293.304688 127.175781 292.21875 126.730469 C 291.136719 126.28125 290.078125 125.777344 289.042969 125.226562 C 288.007812 124.671875 287.003906 124.070312 286.027344 123.417969 C 285.054688 122.769531 284.113281 122.070312 283.207031 121.328125 C 282.300781 120.582031 281.433594 119.796875 280.601562 118.964844 C 279.773438 118.136719 278.988281 117.269531 278.242188 116.363281 C 277.5 115.457031 276.800781 114.515625 276.148438 113.539062 C 275.5 112.566406 274.894531 111.558594 274.34375 110.527344 C 273.789062 109.492188 273.289062 108.433594 272.839844 107.347656 C 272.390625 106.265625 271.996094 105.164062 271.65625 104.039062 C 271.316406 102.917969 271.03125 101.78125 270.804688 100.632812 C 270.574219 99.480469 270.402344 98.324219 270.289062 97.15625 C 270.171875 95.988281 270.113281 94.820312 270.113281 93.648438 C 270.113281 92.472656 270.171875 91.304688 270.289062 90.136719 C 270.402344 88.96875 270.574219 87.8125 270.804688 86.660156 C 271.03125 85.511719 271.316406 84.375 271.65625 83.253906 C 271.996094 82.128906 272.390625 81.027344 272.839844 79.945312 C 273.289062 78.859375 273.789062 77.800781 274.34375 76.765625 C 274.894531 75.734375 275.5 74.726562 276.148438 73.753906 C 276.800781 72.777344 277.5 71.835938 278.242188 70.929688 C 278.988281 70.023438 279.773438 69.15625 280.601562 68.328125 C 281.433594 67.496094 282.300781 66.710938 283.207031 65.96875 C 284.113281 65.222656 285.054688 64.523438 286.027344 63.875 C 287.003906 63.222656 288.007812 62.621094 289.042969 62.066406 C 290.078125 61.515625 291.136719 61.011719 292.21875 60.566406 C 293.304688 60.117188 294.40625 59.722656 295.527344 59.378906 C 296.652344 59.039062 297.785156 58.753906 298.9375 58.527344 C 300.085938 58.296875 301.246094 58.125 302.414062 58.011719 C 303.578125 57.894531 304.75 57.839844 305.921875 57.839844 C 307.09375 57.839844 308.265625 57.894531 309.433594 58.011719 C 310.597656 58.125 311.757812 58.296875 312.910156 58.527344 C 314.058594 58.753906 315.195312 59.039062 316.316406 59.378906 C 317.4375 59.722656 318.542969 60.117188 319.625 60.566406 C 320.710938 61.011719 321.769531 61.515625 322.800781 62.066406 C 323.835938 62.621094 324.839844 63.222656 325.816406 63.875 C 326.792969 64.523438 327.730469 65.222656 328.640625 65.96875 C 329.546875 66.710938 330.414062 67.496094 331.242188 68.328125 C 332.070312 69.15625 332.859375 70.023438 333.601562 70.929688 C 334.347656 71.835938 335.042969 72.777344 335.695312 73.753906 C 336.347656 74.726562 336.949219 75.734375 337.503906 76.765625 C 338.054688 77.800781 338.554688 78.859375 339.003906 79.945312 C 339.453125 81.027344 339.847656 82.128906 340.1875 83.253906 C 340.527344 84.375 340.8125 85.511719 341.042969 86.660156 C 341.269531 87.8125 341.441406 88.96875 341.558594 90.136719 C 341.671875 91.304688 341.730469 92.472656 341.730469 93.648438 Z M 341.730469 93.648438" fill="#dcdde0"></path><path fill-rule="nonzero" fill-opacity="1" d="M 334.851562 93.648438 C 334.851562 94.59375 334.808594 95.539062 334.714844 96.480469 C 334.621094 97.425781 334.480469 98.363281 334.296875 99.289062 C 334.113281 100.21875 333.882812 101.136719 333.609375 102.042969 C 333.332031 102.953125 333.011719 103.84375 332.652344 104.71875 C 332.289062 105.59375 331.882812 106.449219 331.4375 107.285156 C 330.992188 108.121094 330.503906 108.933594 329.976562 109.71875 C 329.449219 110.507812 328.886719 111.269531 328.285156 112 C 327.683594 112.734375 327.050781 113.433594 326.378906 114.105469 C 325.710938 114.773438 325.007812 115.410156 324.277344 116.011719 C 323.542969 116.613281 322.785156 117.175781 321.996094 117.703125 C 321.207031 118.226562 320.394531 118.714844 319.558594 119.160156 C 318.726562 119.609375 317.871094 120.011719 316.992188 120.375 C 316.117188 120.738281 315.226562 121.054688 314.320312 121.332031 C 313.414062 121.605469 312.496094 121.835938 311.566406 122.019531 C 310.636719 122.207031 309.703125 122.34375 308.757812 122.4375 C 307.816406 122.53125 306.871094 122.578125 305.921875 122.578125 C 304.976562 122.578125 304.03125 122.53125 303.085938 122.4375 C 302.144531 122.34375 301.207031 122.207031 300.277344 122.019531 C 299.347656 121.835938 298.429688 121.605469 297.523438 121.332031 C 296.617188 121.054688 295.726562 120.738281 294.851562 120.375 C 293.976562 120.011719 293.121094 119.609375 292.285156 119.160156 C 291.449219 118.714844 290.636719 118.226562 289.847656 117.703125 C 289.0625 117.175781 288.300781 116.613281 287.570312 116.011719 C 286.835938 115.410156 286.136719 114.773438 285.464844 114.105469 C 284.796875 113.433594 284.160156 112.734375 283.558594 112 C 282.957031 111.269531 282.394531 110.507812 281.867188 109.71875 C 281.339844 108.933594 280.855469 108.121094 280.40625 107.285156 C 279.960938 106.449219 279.558594 105.59375 279.195312 104.71875 C 278.832031 103.84375 278.511719 102.953125 278.238281 102.042969 C 277.960938 101.136719 277.734375 100.21875 277.546875 99.289062 C 277.363281 98.363281 277.222656 97.425781 277.132812 96.480469 C 277.039062 95.539062 276.992188 94.59375 276.992188 93.648438 C 276.992188 92.699219 277.039062 91.753906 277.132812 90.8125 C 277.222656 89.867188 277.363281 88.933594 277.546875 88.003906 C 277.734375 87.074219 277.960938 86.15625 278.238281 85.25 C 278.511719 84.339844 278.832031 83.449219 279.195312 82.574219 C 279.558594 81.699219 279.960938 80.84375 280.40625 80.007812 C 280.855469 79.171875 281.339844 78.363281 281.867188 77.574219 C 282.394531 76.785156 282.957031 76.027344 283.558594 75.292969 C 284.160156 74.5625 284.796875 73.859375 285.464844 73.191406 C 286.136719 72.519531 286.835938 71.882812 287.570312 71.28125 C 288.300781 70.683594 289.0625 70.117188 289.847656 69.589844 C 290.636719 69.066406 291.449219 68.578125 292.285156 68.132812 C 293.121094 67.683594 293.976562 67.28125 294.851562 66.917969 C 295.726562 66.554688 296.617188 66.238281 297.523438 65.960938 C 298.429688 65.6875 299.347656 65.457031 300.277344 65.273438 C 301.207031 65.085938 302.144531 64.949219 303.085938 64.855469 C 304.03125 64.761719 304.976562 64.714844 305.921875 64.714844 C 306.871094 64.714844 307.816406 64.761719 308.757812 64.855469 C 309.703125 64.949219 310.636719 65.085938 311.566406 65.273438 C 312.496094 65.457031 313.414062 65.6875 314.320312 65.960938 C 315.226562 66.238281 316.117188 66.554688 316.992188 66.917969 C 317.871094 67.28125 318.726562 67.683594 319.558594 68.132812 C 320.394531 68.578125 321.207031 69.066406 321.996094 69.589844 C 322.785156 70.117188 323.542969 70.683594 324.277344 71.28125 C 325.007812 71.882812 325.710938 72.519531 326.378906 73.191406 C 327.050781 73.859375 327.683594 74.5625 328.285156 75.292969 C 328.886719 76.027344 329.449219 76.785156 329.976562 77.574219 C 330.503906 78.363281 330.992188 79.171875 331.4375 80.007812 C 331.882812 80.84375 332.289062 81.699219 332.652344 82.574219 C 333.011719 83.449219 333.332031 84.339844 333.609375 85.25 C 333.882812 86.15625 334.113281 87.074219 334.296875 88.003906 C 334.480469 88.933594 334.621094 89.867188 334.714844 90.8125 C 334.808594 91.753906 334.851562 92.699219 334.851562 93.648438 Z M 334.851562 93.648438" fill="#f7b128"></path><g clip-path="url(#baf10e2727)"><path fill-rule="nonzero" fill-opacity="1" d="M 548.988281 39.957031 L 548.988281 147.902344 L 699.570312 147.902344 L 743.296875 93.929688 L 699.570312 39.957031 Z M 548.988281 39.957031" fill="#f2f3f5"></path></g><path fill-rule="nonzero" fill-opacity="1" d="M 584.558594 93.648438 C 584.558594 94.820312 584.5 95.988281 584.386719 97.15625 C 584.269531 98.324219 584.097656 99.480469 583.871094 100.632812 C 583.640625 101.78125 583.355469 102.917969 583.015625 104.039062 C 582.675781 105.164062 582.28125 106.265625 581.832031 107.347656 C 581.382812 108.433594 580.882812 109.492188 580.328125 110.527344 C 579.777344 111.558594 579.175781 112.566406 578.523438 113.539062 C 577.871094 114.515625 577.175781 115.457031 576.429688 116.363281 C 575.6875 117.269531 574.898438 118.136719 574.070312 118.964844 C 573.242188 119.796875 572.375 120.582031 571.464844 121.328125 C 570.558594 122.070312 569.617188 122.769531 568.644531 123.417969 C 567.667969 124.070312 566.664062 124.671875 565.628906 125.226562 C 564.597656 125.777344 563.535156 126.28125 562.453125 126.730469 C 561.371094 127.175781 560.265625 127.570312 559.144531 127.914062 C 558.023438 128.253906 556.886719 128.539062 555.734375 128.765625 C 554.585938 128.996094 553.425781 129.167969 552.261719 129.28125 C 551.09375 129.398438 549.921875 129.453125 548.75 129.453125 C 547.578125 129.453125 546.40625 129.398438 545.242188 129.28125 C 544.074219 129.167969 542.914062 128.996094 541.765625 128.765625 C 540.613281 128.539062 539.476562 128.253906 538.355469 127.914062 C 537.234375 127.570312 536.128906 127.175781 535.046875 126.730469 C 533.964844 126.28125 532.90625 125.777344 531.871094 125.226562 C 530.835938 124.671875 529.832031 124.070312 528.855469 123.417969 C 527.882812 122.769531 526.941406 122.070312 526.035156 121.328125 C 525.128906 120.582031 524.261719 119.796875 523.429688 118.964844 C 522.601562 118.136719 521.816406 117.269531 521.070312 116.363281 C 520.328125 115.457031 519.628906 114.515625 518.976562 113.539062 C 518.324219 112.566406 517.722656 111.558594 517.171875 110.527344 C 516.617188 109.492188 516.117188 108.433594 515.667969 107.347656 C 515.21875 106.265625 514.824219 105.164062 514.484375 104.039062 C 514.144531 102.917969 513.859375 101.78125 513.628906 100.632812 C 513.402344 99.480469 513.230469 98.324219 513.113281 97.15625 C 513 95.988281 512.941406 94.820312 512.941406 93.648438 C 512.941406 92.472656 513 91.304688 513.113281 90.136719 C 513.230469 88.96875 513.402344 87.8125 513.628906 86.660156 C 513.859375 85.511719 514.144531 84.375 514.484375 83.253906 C 514.824219 82.128906 515.21875 81.027344 515.667969 79.945312 C 516.117188 78.859375 516.617188 77.800781 517.171875 76.765625 C 517.722656 75.734375 518.324219 74.726562 518.976562 73.753906 C 519.628906 72.777344 520.328125 71.835938 521.070312 70.929688 C 521.816406 70.023438 522.601562 69.15625 523.429688 68.328125 C 524.261719 67.496094 525.128906 66.710938 526.035156 65.96875 C 526.941406 65.222656 527.882812 64.523438 528.855469 63.875 C 529.832031 63.222656 530.835938 62.621094 531.871094 62.066406 C 532.90625 61.515625 533.964844 61.011719 535.046875 60.566406 C 536.132812 60.117188 537.234375 59.722656 538.355469 59.378906 C 539.476562 59.039062 540.613281 58.753906 541.765625 58.527344 C 542.914062 58.296875 544.074219 58.125 545.242188 58.011719 C 546.40625 57.894531 547.578125 57.839844 548.75 57.839844 C 549.921875 57.839844 551.09375 57.894531 552.261719 58.011719 C 553.425781 58.125 554.585938 58.296875 555.734375 58.527344 C 556.886719 58.753906 558.023438 59.039062 559.144531 59.378906 C 560.265625 59.722656 561.371094 60.117188 562.453125 60.566406 C 563.535156 61.011719 564.597656 61.515625 565.628906 62.066406 C 566.664062 62.621094 567.667969 63.222656 568.644531 63.875 C 569.617188 64.523438 570.558594 65.222656 571.464844 65.96875 C 572.375 66.710938 573.242188 67.496094 574.070312 68.328125 C 574.898438 69.15625 575.6875 70.023438 576.429688 70.929688 C 577.175781 71.835938 577.871094 72.777344 578.523438 73.753906 C 579.175781 74.726562 579.777344 75.734375 580.328125 76.765625 C 580.882812 77.800781 581.382812 78.859375 581.832031 79.945312 C 582.28125 81.027344 582.675781 82.128906 583.015625 83.253906 C 583.355469 84.375 583.640625 85.511719 583.871094 86.660156 C 584.097656 87.8125 584.269531 88.96875 584.386719 90.136719 C 584.5 91.304688 584.558594 92.472656 584.558594 93.648438 Z M 584.558594 93.648438" fill="#dcdde0"></path><path fill-rule="nonzero" fill-opacity="1" d="M 577.679688 93.648438 C 577.679688 94.59375 577.632812 95.539062 577.542969 96.480469 C 577.449219 97.425781 577.308594 98.363281 577.125 99.289062 C 576.941406 100.21875 576.710938 101.136719 576.433594 102.042969 C 576.160156 102.953125 575.839844 103.84375 575.480469 104.71875 C 575.117188 105.59375 574.710938 106.449219 574.265625 107.285156 C 573.816406 108.121094 573.332031 108.933594 572.804688 109.71875 C 572.277344 110.507812 571.714844 111.269531 571.113281 112 C 570.511719 112.734375 569.878906 113.433594 569.207031 114.105469 C 568.539062 114.773438 567.835938 115.410156 567.105469 116.011719 C 566.371094 116.613281 565.609375 117.175781 564.824219 117.703125 C 564.035156 118.226562 563.222656 118.714844 562.386719 119.160156 C 561.550781 119.609375 560.695312 120.011719 559.820312 120.375 C 558.945312 120.738281 558.054688 121.054688 557.148438 121.332031 C 556.242188 121.605469 555.324219 121.835938 554.394531 122.019531 C 553.464844 122.207031 552.527344 122.34375 551.585938 122.4375 C 550.644531 122.53125 549.699219 122.578125 548.75 122.578125 C 547.804688 122.578125 546.859375 122.53125 545.914062 122.4375 C 544.972656 122.34375 544.035156 122.207031 543.105469 122.019531 C 542.175781 121.835938 541.257812 121.605469 540.351562 121.332031 C 539.445312 121.054688 538.554688 120.738281 537.679688 120.375 C 536.804688 120.011719 535.949219 119.609375 535.113281 119.160156 C 534.277344 118.714844 533.464844 118.226562 532.675781 117.703125 C 531.890625 117.175781 531.128906 116.613281 530.398438 116.011719 C 529.664062 115.410156 528.964844 114.773438 528.292969 114.105469 C 527.625 113.433594 526.988281 112.734375 526.386719 112 C 525.785156 111.269531 525.222656 110.507812 524.695312 109.71875 C 524.167969 108.933594 523.683594 108.121094 523.234375 107.285156 C 522.789062 106.449219 522.382812 105.59375 522.023438 104.71875 C 521.660156 103.84375 521.339844 102.953125 521.066406 102.042969 C 520.789062 101.136719 520.558594 100.21875 520.375 99.289062 C 520.191406 98.363281 520.050781 97.425781 519.960938 96.480469 C 519.867188 95.539062 519.820312 94.59375 519.820312 93.648438 C 519.820312 92.699219 519.867188 91.753906 519.960938 90.8125 C 520.050781 89.867188 520.191406 88.933594 520.375 88.003906 C 520.558594 87.074219 520.789062 86.15625 521.066406 85.25 C 521.339844 84.339844 521.660156 83.449219 522.023438 82.574219 C 522.382812 81.699219 522.789062 80.84375 523.234375 80.007812 C 523.683594 79.171875 524.167969 78.363281 524.695312 77.574219 C 525.222656 76.785156 525.785156 76.027344 526.386719 75.292969 C 526.988281 74.5625 527.625 73.859375 528.292969 73.191406 C 528.964844 72.519531 529.664062 71.882812 530.398438 71.28125 C 531.128906 70.683594 531.890625 70.117188 532.675781 69.589844 C 533.464844 69.066406 534.277344 68.578125 535.113281 68.132812 C 535.949219 67.683594 536.804688 67.28125 537.679688 66.917969 C 538.554688 66.554688 539.445312 66.238281 540.351562 65.960938 C 541.257812 65.6875 542.175781 65.457031 543.105469 65.273438 C 544.035156 65.085938 544.972656 64.949219 545.914062 64.855469 C 546.859375 64.761719 547.804688 64.714844 548.75 64.714844 C 549.699219 64.714844 550.644531 64.761719 551.585938 64.855469 C 552.527344 64.949219 553.464844 65.085938 554.394531 65.273438 C 555.324219 65.457031 556.242188 65.6875 557.148438 65.960938 C 558.054688 66.238281 558.945312 66.554688 559.820312 66.917969 C 560.695312 67.28125 561.550781 67.683594 562.386719 68.132812 C 563.222656 68.578125 564.035156 69.066406 564.824219 69.589844 C 565.609375 70.117188 566.371094 70.683594 567.105469 71.28125 C 567.835938 71.882812 568.539062 72.519531 569.207031 73.191406 C 569.878906 73.859375 570.511719 74.5625 571.113281 75.292969 C 571.714844 76.027344 572.277344 76.785156 572.804688 77.574219 C 573.332031 78.363281 573.816406 79.171875 574.265625 80.007812 C 574.710938 80.84375 575.117188 81.699219 575.480469 82.574219 C 575.839844 83.449219 576.160156 84.339844 576.433594 85.25 C 576.710938 86.15625 576.941406 87.074219 577.125 88.003906 C 577.308594 88.933594 577.449219 89.867188 577.542969 90.8125 C 577.632812 91.753906 577.679688 92.699219 577.679688 93.648438 Z M 577.679688 93.648438" fill="#f7b128"></path></svg>