<svg version="1.0" preserveAspectRatio="xMidYMid meet" height="1023" viewBox="0 0 757.5 767.249976" zoomAndPan="magnify" width="1010" xmlns:xlink="http://www.w3.org/1999/xlink" xmlns="http://www.w3.org/2000/svg"><defs><clipPath id="5fe4d9a0ce"><path clip-rule="nonzero" d="M 0.121094 0 L 756.878906 0 L 756.878906 766.5 L 0.121094 766.5 Z M 0.121094 0"></path></clipPath><clipPath id="6e0e3135aa"><path clip-rule="nonzero" d="M 8.625 417 L 113 417 L 113 480 L 8.625 480 Z M 8.625 417"></path></clipPath><clipPath id="24131e80d3"><path clip-rule="nonzero" d="M 8.625 333 L 380 333 L 380 512 L 8.625 512 Z M 8.625 333"></path></clipPath></defs><path fill-rule="nonzero" fill-opacity="1" d="M 745.902344 520.386719 C 686.59375 671.410156 602.453125 537.582031 358.847656 347.527344 C 338.707031 331.816406 307.089844 313.328125 272.03125 305.46875 C 293.601562 294.613281 308.6875 269.761719 308.6875 240.816406 C 308.6875 201.890625 281.390625 170.328125 247.726562 170.328125 C 214.054688 170.328125 186.769531 201.890625 186.769531 240.816406 C 186.769531 267.832031 199.90625 291.277344 219.195312 303.117188 C 186.363281 308.242188 153.894531 327.230469 127.601562 369.824219 C 133.128906 375.777344 138.730469 382.203125 144.417969 389.230469 C 146.90625 392.316406 149.503906 395.183594 152.164062 397.902344 C 245.277344 319.855469 392.566406 442.496094 408.972656 455.511719 C 481.46875 513.054688 600.625 625.628906 676.25 617.554688 C 748.375 609.851562 745.902344 520.386719 745.902344 520.386719" fill="#fbb817"></path><g clip-path="url(#6e0e3135aa)"><path fill-rule="nonzero" fill-opacity="1" d="M 98.003906 417.421875 C 42.847656 493.03125 8.660156 457.46875 8.660156 457.46875 C 8.660156 457.46875 38.019531 516.1875 112.132812 441.207031 C 111.902344 440.800781 111.667969 440.421875 111.4375 440.007812 C 106.804688 431.65625 102.324219 424.160156 98.003906 417.421875" fill="#fbb817"></path></g><path fill-rule="nonzero" fill-opacity="1" d="M 639.960938 226.300781 C 657.972656 214.050781 670.074219 191.417969 670.074219 165.511719 C 670.074219 126.578125 642.78125 95.015625 609.117188 95.015625 C 575.445312 95.015625 548.152344 126.578125 548.152344 165.511719 C 548.152344 194.632812 563.429688 219.632812 585.226562 230.375 C 525.496094 249.664062 466.664062 311.488281 408.972656 357.28125 C 407.300781 358.609375 404.261719 361.078125 400.078125 364.34375 C 414.503906 375.957031 428.296875 387.273438 441.527344 398.292969 C 598.207031 251.351562 658.839844 205.5625 701.035156 322.046875 C 701.035156 322.046875 703.257812 239.925781 639.960938 226.300781" fill="#f28000"></path><g clip-path="url(#24131e80d3)"><path fill-rule="nonzero" fill-opacity="1" d="M 134.746094 397.054688 C 43.917969 284.746094 8.660156 355.328125 8.660156 355.328125 C 8.660156 355.328125 53.074219 309.109375 122.3125 433.980469 C 191.558594 558.847656 309.539062 503.734375 358.847656 465.257812 C 365.964844 459.710938 372.925781 454.21875 379.769531 448.769531 C 363.933594 437.207031 344.671875 424.484375 323.695312 413.417969 C 264.265625 443.316406 187.054688 461.734375 134.746094 397.054688" fill="#f28000"></path></g></svg>