<svg version="1.0" preserveAspectRatio="xMidYMid meet" height="376" viewBox="0 0 186 281.999989" zoomAndPan="magnify" width="248" xmlns:xlink="http://www.w3.org/1999/xlink" xmlns="http://www.w3.org/2000/svg"><defs><clipPath id="e2a3e97134"><path clip-rule="nonzero" d="M 9.199219 8.128906 L 180.199219 8.128906 L 180.199219 268 L 9.199219 268 Z M 9.199219 8.128906"></path></clipPath></defs><g clip-path="url(#e2a3e97134)"><path fill-rule="nonzero" fill-opacity="1" d="M 110.683594 175.929688 C 139.960938 160.953125 180.050781 140.433594 180.050781 89.898438 C 180.050781 41.753906 144.628906 8.128906 93.90625 8.128906 C 53.621094 8.128906 21.070312 30.324219 12.902344 63.347656 C 10.363281 73.515625 11.492188 82.074219 16.191406 88.09375 C 21.039062 94.304688 29.492188 97.585938 40.628906 97.585938 L 45.371094 97.585938 C 59.070312 97.585938 65.972656 90.101562 72.054688 83.5 L 72.132812 83.417969 C 77.863281 77.195312 83.273438 71.320312 93.53125 71.320312 C 105.335938 71.320312 113.570312 79.265625 113.570312 90.632812 C 113.570312 109.769531 97.730469 119.945312 73.5625 133.277344 L 73.253906 133.449219 C 58.15625 141.785156 42.539062 150.402344 30.226562 163.125 C 16.078125 177.753906 9.207031 195.21875 9.207031 216.515625 L 9.207031 241.695312 C 9.207031 258.652344 19.976562 267.996094 39.527344 267.996094 L 148.273438 267.996094 C 167.824219 267.996094 178.589844 257.226562 178.589844 237.675781 L 178.589844 234.027344 C 178.589844 214.476562 167.824219 203.710938 148.273438 203.710938 L 76.828125 203.710938 C 77.820312 192.746094 93.089844 184.929688 110.683594 175.929688 Z M 74.535156 204.847656 C 74.535156 205.46875 75.039062 205.972656 75.660156 205.972656 L 148.273438 205.972656 C 166.632812 205.972656 176.34375 215.675781 176.34375 234.042969 L 176.34375 237.691406 C 176.34375 256.050781 166.640625 265.761719 148.273438 265.761719 L 39.527344 265.761719 C 21.429688 265.761719 11.457031 257.222656 11.457031 241.710938 L 11.457031 216.53125 C 11.457031 170.125 44.863281 151.691406 74.339844 135.429688 L 74.648438 135.257812 C 94.890625 124.089844 115.816406 112.542969 115.816406 90.640625 C 115.816406 77.945312 106.652344 69.082031 93.53125 69.082031 C 82.292969 69.082031 76.289062 75.601562 70.476562 81.902344 L 70.398438 81.984375 C 64.34375 88.558594 58.082031 95.351562 45.363281 95.351562 L 40.621094 95.351562 C 30.203125 95.351562 22.367188 92.371094 17.953125 86.722656 C 13.695312 81.273438 12.699219 73.382812 15.074219 63.902344 C 22.996094 31.882812 54.671875 10.378906 93.90625 10.378906 C 143.304688 10.378906 177.804688 43.078125 177.804688 89.898438 C 177.804688 139.054688 138.417969 159.214844 109.660156 173.929688 C 90.039062 183.964844 74.535156 191.898438 74.535156 204.847656 Z M 74.535156 204.847656" fill="#000000"></path></g><path fill-rule="nonzero" fill-opacity="1" d="M 109.664062 173.921875 C 138.425781 159.207031 177.8125 139.054688 177.8125 89.890625 C 177.8125 43.070312 143.3125 10.371094 93.914062 10.371094 C 54.679688 10.371094 23.003906 31.875 15.089844 63.886719 C 12.722656 73.367188 13.71875 81.257812 17.96875 86.707031 C 22.375 92.355469 30.210938 95.339844 40.636719 95.339844 L 45.378906 95.339844 C 58.09375 95.339844 64.359375 88.542969 70.414062 81.96875 L 70.488281 81.886719 C 76.296875 75.585938 82.308594 69.066406 93.546875 69.066406 C 106.667969 69.066406 115.832031 77.929688 115.832031 90.625 C 115.832031 112.527344 94.902344 124.074219 74.664062 135.242188 L 74.355469 135.414062 C 44.882812 151.675781 11.472656 170.109375 11.472656 216.515625 L 11.472656 241.695312 C 11.472656 257.207031 21.4375 265.75 39.542969 265.75 L 148.289062 265.75 C 166.648438 265.75 176.359375 256.042969 176.359375 237.675781 L 176.359375 234.027344 C 176.359375 215.667969 166.652344 205.957031 148.289062 205.957031 L 75.675781 205.957031 C 75.054688 205.957031 74.550781 205.457031 74.550781 204.832031 C 74.535156 191.898438 90.039062 183.964844 109.664062 173.921875 Z M 109.664062 173.921875" fill="#fbb817"></path></svg>