<svg version="1.0" preserveAspectRatio="xMidYMid meet" height="1023" viewBox="0 0 757.5 767.249976" zoomAndPan="magnify" width="1010" xmlns:xlink="http://www.w3.org/1999/xlink" xmlns="http://www.w3.org/2000/svg"><defs><clipPath id="2b7efcb904"><path clip-rule="nonzero" d="M 149 54.839844 L 582 54.839844 L 582 711.949219 L 149 711.949219 Z M 149 54.839844"></path></clipPath></defs><g clip-path="url(#2b7efcb904)"><path fill-rule="nonzero" fill-opacity="1" d="M 401.03125 279.878906 C 373.605469 279.878906 349.136719 286.527344 335.082031 293.667969 L 351.675781 217.320312 L 475.726562 217.320312 C 525.140625 217.320312 552.355469 190.105469 552.355469 140.695312 L 552.355469 131.46875 C 552.355469 82.058594 525.140625 54.839844 475.726562 54.839844 L 283.910156 54.839844 C 237.148438 54.839844 210.292969 77.324219 201.808594 123.574219 L 162.148438 341.242188 C 153.738281 387.964844 176.296875 421.601562 222.453125 431.222656 L 248.246094 436.753906 C 277.394531 443.230469 296.390625 434.613281 314.761719 426.261719 L 315.082031 426.109375 C 328.472656 420.03125 342.300781 413.761719 360.460938 413.761719 C 384.476562 413.761719 412.035156 420.257812 412.035156 470.863281 L 412.035156 489.308594 C 412.035156 538.796875 384.496094 549.175781 361.390625 549.175781 C 326.21875 549.175781 313.53125 533.34375 300.101562 516.601562 L 299.96875 516.429688 C 286.351562 499.421875 272.261719 481.847656 235.066406 481.847656 L 222.148438 481.847656 C 195.613281 481.847656 175.007812 489.933594 162.546875 505.238281 C 150.746094 519.726562 147.109375 539.933594 152.035156 563.664062 C 161.523438 608.363281 186.996094 646.011719 225.726562 672.507812 C 263.113281 698.097656 310.007812 711.617188 361.390625 711.617188 L 361.410156 711.617188 C 425.367188 711.617188 480.308594 690.484375 520.289062 650.5 C 560.574219 610.21875 581.882812 554.460938 581.882812 489.289062 L 581.882812 470.84375 C 581.882812 406.089844 565.386719 357 532.847656 324.953125 C 502.46875 295.050781 458.113281 279.878906 401.03125 279.878906 Z M 576.179688 489.308594 C 576.179688 618.890625 489.855469 705.976562 361.371094 705.976562 C 257.679688 705.976562 175.765625 648.324219 157.585938 562.527344 C 153.019531 540.539062 156.257812 521.980469 166.941406 508.855469 C 178.285156 494.914062 197.355469 487.546875 222.128906 487.546875 L 235.046875 487.546875 C 269.535156 487.546875 282.148438 503.304688 295.519531 519.992188 L 295.652344 520.160156 C 309.324219 537.226562 323.472656 554.878906 361.371094 554.878906 C 382.414062 554.878906 417.695312 546.355469 417.695312 489.328125 L 417.695312 470.882812 C 417.695312 428.039062 399.496094 408.097656 360.441406 408.097656 C 341.050781 408.097656 326.636719 414.632812 312.714844 420.957031 L 312.394531 421.109375 C 294.078125 429.421875 276.769531 437.28125 249.441406 431.222656 L 223.605469 425.691406 C 180.179688 416.640625 159.800781 386.242188 167.714844 342.285156 L 207.375 124.632812 C 215.40625 80.921875 239.722656 60.5625 283.890625 60.5625 L 475.726562 60.5625 C 522.128906 60.5625 546.671875 85.085938 546.671875 131.507812 L 546.671875 140.730469 C 546.671875 187.132812 522.148438 211.679688 475.726562 211.679688 L 349.382812 211.679688 C 348.039062 211.679688 346.882812 212.605469 346.597656 213.914062 L 328.152344 298.761719 C 327.90625 299.898438 328.378906 301.050781 329.324219 301.714844 C 330.273438 302.359375 331.542969 302.378906 332.507812 301.734375 C 340.878906 296.167969 365.953125 285.617188 401.03125 285.617188 C 517.261719 285.617188 576.179688 347.964844 576.179688 470.917969 Z M 576.179688 489.308594" fill="#000000"></path></g><path fill-rule="nonzero" fill-opacity="1" d="M 401.03125 285.558594 C 365.953125 285.558594 340.878906 296.109375 332.507812 301.675781 C 331.542969 302.320312 330.292969 302.320312 329.324219 301.660156 C 328.378906 301.015625 327.90625 299.839844 328.152344 298.703125 L 346.597656 213.855469 C 346.882812 212.550781 348.039062 211.621094 349.382812 211.621094 L 475.726562 211.621094 C 522.128906 211.621094 546.671875 187.09375 546.671875 140.675781 L 546.671875 131.453125 C 546.671875 85.050781 522.148438 60.503906 475.726562 60.503906 L 283.910156 60.503906 C 239.722656 60.503906 215.425781 80.863281 207.394531 124.578125 L 167.734375 342.226562 C 159.820312 386.183594 180.199219 416.582031 223.625 425.636719 L 249.457031 431.164062 C 276.789062 437.246094 294.078125 429.386719 312.414062 421.050781 L 312.734375 420.902344 C 326.675781 414.574219 341.066406 408.039062 360.460938 408.039062 C 399.515625 408.039062 417.714844 427.984375 417.714844 470.824219 L 417.714844 489.308594 C 417.714844 546.355469 382.429688 554.859375 361.390625 554.859375 C 323.492188 554.859375 309.34375 537.207031 295.671875 520.140625 L 295.539062 519.972656 C 282.167969 503.285156 269.535156 487.527344 235.066406 487.527344 L 222.148438 487.527344 C 197.375 487.527344 178.304688 494.894531 166.960938 508.835938 C 156.277344 521.960938 153.039062 540.519531 157.601562 562.507812 C 175.804688 648.304688 257.695312 705.957031 361.390625 705.957031 C 489.875 705.957031 576.199219 618.890625 576.199219 489.289062 L 576.199219 470.84375 C 576.179688 347.910156 517.261719 285.558594 401.03125 285.558594 Z M 401.03125 285.558594" fill="#f0841f"></path></svg>