<svg version="1.0" preserveAspectRatio="xMidYMid meet" height="1023" viewBox="0 0 757.5 767.249976" zoomAndPan="magnify" width="1010" xmlns:xlink="http://www.w3.org/1999/xlink" xmlns="http://www.w3.org/2000/svg"><defs><clipPath id="05bec668d1"><path clip-rule="nonzero" d="M 106.796875 70 L 546.617188 70 L 546.617188 682.636719 L 106.796875 682.636719 Z M 106.796875 70"></path></clipPath></defs><g clip-path="url(#05bec668d1)"><path fill-rule="nonzero" fill-opacity="1" d="M 490.148438 422.605469 L 489.144531 422.605469 L 489.144531 141.800781 C 489.144531 95.78125 463.796875 70.4375 417.777344 70.4375 L 392.890625 70.4375 C 354.5625 70.4375 329.25 84.160156 308.226562 116.296875 L 133.007812 384.277344 C 114.152344 413.097656 106.8125 437.351562 106.8125 470.757812 L 106.8125 493.953125 C 106.8125 539.972656 132.160156 565.316406 178.179688 565.316406 L 337.011719 565.316406 L 337.011719 621.074219 C 337.011719 660.441406 362.359375 682.121094 408.378906 682.121094 L 417.832031 682.121094 C 463.851562 682.121094 489.195312 656.773438 489.195312 610.753906 L 489.195312 566.164062 L 490.625 566.164062 C 525.761719 566.164062 546.734375 540.765625 546.734375 498.238281 L 546.734375 488.785156 C 546.699219 447.96875 525.039062 422.605469 490.148438 422.605469 Z M 541.40625 498.257812 C 541.40625 538.066406 522.886719 560.890625 490.589844 560.890625 L 486.515625 560.890625 C 485.050781 560.890625 483.871094 562.070312 483.871094 563.535156 L 483.871094 610.773438 C 483.871094 653.984375 461.027344 676.84375 417.796875 676.84375 L 408.34375 676.84375 C 365.128906 676.84375 342.269531 657.566406 342.269531 621.089844 L 342.269531 562.691406 C 342.269531 561.226562 341.085938 560.042969 339.625 560.042969 L 178.144531 560.042969 C 134.929688 560.042969 112.070312 537.203125 112.070312 493.96875 L 112.070312 470.777344 C 112.070312 438.09375 118.929688 415.425781 137.398438 387.1875 L 312.636719 119.207031 C 332.566406 88.746094 356.554688 75.746094 392.875 75.746094 L 417.777344 75.746094 C 460.992188 75.746094 483.851562 98.585938 483.851562 141.820312 L 483.851562 425.269531 C 483.851562 426.734375 485.035156 427.914062 486.5 427.914062 L 490.148438 427.914062 C 522.234375 427.914062 541.40625 450.6875 541.40625 488.835938 Z M 541.40625 498.257812" fill="#000000"></path></g><path fill-rule="nonzero" fill-opacity="1" d="M 340.382812 302.699219 C 339.253906 302.363281 338.054688 302.824219 337.417969 303.792969 L 260.285156 422.941406 C 259.757812 423.75 259.722656 424.792969 260.179688 425.640625 C 260.636719 426.484375 261.539062 427.015625 262.507812 427.015625 L 339.640625 427.015625 C 341.105469 427.015625 342.285156 425.832031 342.285156 424.371094 L 342.285156 305.222656 C 342.269531 304.074219 341.511719 303.035156 340.382812 302.699219 Z M 336.976562 421.742188 L 267.359375 421.742188 L 336.976562 314.199219 Z M 336.976562 421.742188" fill="#000000"></path><path fill-rule="nonzero" fill-opacity="1" d="M 490.148438 427.898438 L 486.5 427.898438 C 485.035156 427.898438 483.851562 426.714844 483.851562 425.25 L 483.851562 141.800781 C 483.851562 98.585938 461.011719 75.726562 417.777344 75.726562 L 392.890625 75.726562 C 356.574219 75.726562 332.566406 88.726562 312.652344 119.1875 L 137.433594 387.167969 C 118.964844 415.410156 112.105469 438.074219 112.105469 470.757812 L 112.105469 493.953125 C 112.105469 537.167969 134.945312 560.027344 178.179688 560.027344 L 339.660156 560.027344 C 341.121094 560.027344 342.304688 561.207031 342.304688 562.671875 L 342.304688 621.074219 C 342.304688 657.550781 365.144531 676.828125 408.378906 676.828125 L 417.832031 676.828125 C 461.046875 676.828125 483.90625 653.984375 483.90625 610.753906 L 483.90625 563.519531 C 483.90625 562.054688 485.085938 560.871094 486.550781 560.871094 L 490.625 560.871094 C 522.921875 560.871094 541.441406 538.046875 541.441406 498.238281 L 541.441406 488.785156 C 541.40625 450.667969 522.25 427.898438 490.148438 427.898438 Z M 342.269531 424.386719 C 342.269531 425.851562 341.085938 427.03125 339.625 427.03125 L 262.492188 427.03125 C 261.519531 427.03125 260.621094 426.503906 260.160156 425.65625 C 259.703125 424.808594 259.738281 423.769531 260.269531 422.957031 L 337.402344 303.8125 C 338.035156 302.824219 339.253906 302.382812 340.363281 302.71875 C 341.492188 303.050781 342.269531 304.074219 342.269531 305.257812 Z M 342.269531 424.386719" fill="#ffd55c"></path></svg>