<svg version="1.0" preserveAspectRatio="xMidYMid meet" height="1023" viewBox="94.9 27.95 465.9 696.7" zoomAndPan="magnify" width="1010" xmlns:xlink="http://www.w3.org/1999/xlink" xmlns="http://www.w3.org/2000/svg"><defs><clipPath id="e331d458ea"><path clip-rule="nonzero" d="M 127 76 L 528.691406 76 L 528.691406 676.589844 L 127 676.589844 Z M 127 76"></path></clipPath></defs><g clip-path="url(#e331d458ea)"><path fill-rule="nonzero" fill-opacity="1" d="M 448.964844 368.308594 C 493.34375 346.335938 518.636719 299.605469 518.636719 238.960938 C 518.636719 190.878906 499.035156 149.824219 461.957031 120.238281 C 426.421875 91.898438 376.210938 76.273438 320.585938 76.273438 C 226.515625 76.273438 152.363281 127.554688 136.0625 203.855469 C 130.753906 228.164062 134.628906 249.984375 146.964844 265.292969 C 158.261719 279.324219 176.238281 287.042969 197.570312 287.042969 L 211.050781 287.042969 C 235.789062 287.042969 251 270.535156 265.707031 254.585938 L 266.433594 253.789062 C 280.773438 238.234375 295.601562 222.160156 320.570312 222.160156 C 348.910156 222.160156 365.15625 236.886719 365.15625 262.527344 C 365.15625 293.789062 347.886719 309.636719 313.820312 309.636719 L 308.769531 309.636719 C 272.347656 309.636719 249.71875 335.175781 249.71875 376.265625 C 249.71875 418.605469 271.242188 442.894531 308.769531 442.894531 L 313.820312 442.894531 C 356.261719 442.894531 373.5625 455.820312 373.5625 487.480469 C 373.5625 519.457031 350.242188 526.167969 330.65625 526.167969 C 300.152344 526.167969 283.578125 508.96875 267.574219 492.328125 L 267.402344 492.136719 C 251.207031 475.320312 234.476562 457.929688 204.285156 457.929688 L 191.65625 457.929688 C 170.097656 457.929688 152.65625 465.40625 141.21875 479.558594 C 128.761719 494.972656 124.835938 517.136719 130.148438 541.949219 C 147.242188 622.296875 224.785156 676.277344 323.09375 676.277344 C 323.164062 676.277344 323.234375 676.277344 323.300781 676.277344 C 383.289062 676.242188 434.429688 659.011719 471.214844 626.449219 C 508.84375 593.125 528.742188 545.945312 528.742188 490.023438 C 528.742188 461.027344 520.574219 433.96875 505.109375 411.769531 C 490.972656 391.441406 471.664062 376.527344 448.964844 368.308594 Z M 323.113281 671.085938 C 323.042969 671.085938 322.972656 671.085938 322.90625 671.085938 C 227.191406 671.019531 151.792969 618.699219 135.234375 540.859375 C 130.25 517.605469 133.816406 496.980469 145.269531 482.8125 C 155.683594 469.921875 171.742188 463.121094 191.671875 463.121094 L 204.300781 463.121094 C 232.277344 463.121094 247.519531 478.96875 263.664062 495.734375 L 263.835938 495.925781 C 280.601562 513.347656 297.957031 531.359375 330.65625 531.359375 C 361.660156 531.359375 378.753906 515.769531 378.753906 487.480469 C 378.753906 453.050781 358.738281 437.707031 313.820312 437.707031 L 308.769531 437.707031 C 274.042969 437.707031 254.910156 415.886719 254.910156 376.265625 C 254.910156 337.804688 275.046875 314.828125 308.769531 314.828125 L 313.820312 314.828125 C 350.792969 314.828125 370.347656 296.75 370.347656 262.527344 C 370.347656 233.996094 351.730469 216.972656 320.570312 216.972656 C 293.320312 216.972656 277.003906 234.652344 262.609375 250.277344 L 261.882812 251.074219 C 247.296875 266.902344 233.507812 281.851562 211.050781 281.851562 L 197.570312 281.851562 C 177.535156 281.851562 161.445312 275 150.996094 262.042969 C 139.664062 247.976562 136.167969 227.714844 141.132812 204.945312 C 156.894531 131.085938 229.007812 81.464844 320.585938 81.464844 C 434.136719 81.464844 513.449219 146.226562 513.449219 238.945312 C 513.449219 300.121094 486.992188 346.542969 440.882812 366.300781 C 439.882812 366.734375 439.257812 367.738281 439.308594 368.828125 C 439.378906 369.917969 440.105469 370.851562 441.160156 371.164062 C 490.453125 385.957031 523.570312 433.707031 523.570312 490.007812 C 523.570312 600.011719 444.882812 671.085938 323.113281 671.085938 Z M 323.113281 671.085938" fill="#000000"></path></g><path fill-rule="nonzero" fill-opacity="1" d="M 441.160156 371.179688 C 440.125 370.867188 439.378906 369.933594 439.308594 368.84375 C 439.242188 367.753906 439.882812 366.75 440.882812 366.320312 C 487.011719 346.558594 513.449219 300.121094 513.449219 238.960938 C 513.449219 146.242188 434.136719 81.480469 320.585938 81.480469 C 229.027344 81.480469 156.914062 131.101562 141.132812 204.964844 C 136.167969 227.714844 139.679688 247.992188 150.996094 262.058594 C 161.429688 275.019531 177.535156 281.871094 197.570312 281.871094 L 211.050781 281.871094 C 233.507812 281.871094 247.296875 266.921875 261.882812 251.089844 L 262.609375 250.292969 C 277.003906 234.6875 293.320312 216.988281 320.570312 216.988281 C 351.730469 216.988281 370.347656 234.011719 370.347656 262.542969 C 370.347656 296.765625 350.792969 314.847656 313.820312 314.847656 L 308.769531 314.847656 C 275.046875 314.847656 254.910156 337.804688 254.910156 376.285156 C 254.910156 415.90625 274.027344 437.722656 308.769531 437.722656 L 313.820312 437.722656 C 358.738281 437.722656 378.753906 453.070312 378.753906 487.5 C 378.753906 515.789062 361.675781 531.375 330.65625 531.375 C 297.9375 531.375 280.601562 513.367188 263.835938 495.941406 L 263.664062 495.753906 C 247.519531 478.988281 232.261719 463.136719 204.300781 463.136719 L 191.671875 463.136719 C 171.722656 463.136719 155.683594 469.957031 145.269531 482.828125 C 133.816406 496.996094 130.25 517.605469 135.234375 540.875 C 151.792969 618.714844 227.191406 671.035156 322.90625 671.105469 C 322.972656 671.105469 323.042969 671.105469 323.113281 671.105469 C 444.882812 671.105469 523.570312 600.027344 523.570312 490.023438 C 523.570312 433.726562 490.453125 385.972656 441.160156 371.179688 Z M 441.160156 371.179688" fill="#f28000"></path></svg>