<svg version="1.0" preserveAspectRatio="xMidYMid meet" height="1023" viewBox="0 0 757.5 767.249976" zoomAndPan="magnify" width="1010" xmlns:xlink="http://www.w3.org/1999/xlink" xmlns="http://www.w3.org/2000/svg"><defs><clipPath id="4620203548"><path clip-rule="nonzero" d="M 0.121094 0 L 756.878906 0 L 756.878906 766.5 L 0.121094 766.5 Z M 0.121094 0"></path></clipPath><clipPath id="5cbebb1d02"><path clip-rule="nonzero" d="M 419 354 L 756.878906 354 L 756.878906 693 L 419 693 Z M 419 354"></path></clipPath></defs><g clip-path="url(#4620203548)"><path fill-rule="nonzero" fill-opacity="1" d="M 0.121094 0 L 756.878906 0 L 756.878906 766.5 L 0.121094 766.5 Z M 0.121094 0" fill="#ffffff"></path><path fill-rule="nonzero" fill-opacity="1" d="M 0.121094 0 L 756.878906 0 L 756.878906 766.5 L 0.121094 766.5 Z M 0.121094 0" fill="#ffffff"></path></g><path fill-rule="evenodd" fill-opacity="1" d="M 198.90625 73.371094 C 184.710938 73.371094 173.238281 84.824219 173.238281 99.089844 L 173.238281 186.640625 C 173.238281 200.886719 184.710938 212.347656 198.90625 212.347656 C 213.152344 212.347656 224.625 200.894531 224.625 186.640625 L 224.625 156.789062 C 236.375 165.105469 243.40625 178.613281 243.40625 193.070312 C 243.40625 217.636719 223.476562 237.566406 198.90625 237.566406 C 174.339844 237.566406 154.410156 217.636719 154.410156 193.070312 L 154.410156 119.515625 L 122.914062 119.515625 C 105.378906 119.515625 88.671875 123.953125 75.621094 134.316406 C 62.507812 144.734375 54.238281 160.875 52.5 179.320312 L 26.792969 584.480469 C 25.644531 603.117188 29.777344 621.101562 40.835938 634.71875 C 51.894531 648.3125 69.433594 656.835938 88.824219 656.835938 L 440.070312 656.835938 C 429.460938 645.125 420.09375 632.269531 412.519531 618.328125 L 93.160156 618.328125 C 83.699219 618.328125 77.957031 615.035156 73.632812 609.707031 C 69.300781 604.425781 67.003906 596.398438 67.546875 586.183594 L 83.839844 270.066406 L 564.160156 270.066406 L 566.992188 324.9375 C 573.777344 324.238281 580.65625 323.894531 587.628906 323.894531 C 593.304688 323.894531 599.035156 324.191406 604.707031 324.628906 L 595.492188 179.332031 C 593.695312 160.882812 585.476562 144.746094 572.371094 134.324219 C 559.320312 123.964844 542.625 119.523438 525.078125 119.523438 L 474.753906 119.523438 L 474.753906 99.097656 C 474.753906 84.832031 463.28125 73.382812 449.035156 73.382812 C 434.839844 73.382812 423.386719 84.832031 423.386719 99.097656 L 423.386719 186.640625 C 423.386719 200.886719 434.839844 212.347656 449.035156 212.347656 C 463.28125 212.347656 474.753906 200.894531 474.753906 186.640625 L 474.753906 156.789062 C 486.511719 165.105469 493.542969 178.613281 493.582031 193.070312 C 493.582031 217.636719 473.652344 237.566406 449.035156 237.566406 C 424.46875 237.566406 404.539062 217.636719 404.539062 193.070312 L 404.539062 119.515625 L 224.625 119.515625 L 224.625 99.089844 C 224.625 84.832031 213.152344 73.371094 198.90625 73.371094 Z M 198.90625 73.371094" fill="#f7b128"></path><g clip-path="url(#5cbebb1d02)"><path fill-rule="evenodd" fill-opacity="1" d="M 587.628906 354.460938 C 494.492188 354.460938 419.003906 430.050781 419.003906 523.335938 C 419.003906 616.566406 494.5 692.167969 587.628906 692.167969 C 632.320312 692.167969 675.226562 674.421875 706.808594 642.734375 C 738.410156 611.039062 756.1875 568.136719 756.1875 523.335938 C 756.1875 478.550781 738.402344 435.582031 706.808594 403.894531 C 675.226562 372.257812 632.320312 354.460938 587.628906 354.460938 Z M 587.628906 396.230469 C 621.257812 396.230469 653.558594 409.625 677.324219 433.457031 C 701.136719 457.328125 714.492188 489.609375 714.492188 523.34375 C 714.492188 557.03125 701.136719 589.367188 677.324219 613.191406 C 653.558594 637.0625 621.257812 650.417969 587.628906 650.417969 C 517.511719 650.417969 460.699219 593.511719 460.699219 523.351562 C 460.707031 453.121094 517.511719 396.230469 587.628906 396.230469 Z M 587.628906 396.230469" fill="#f7b128"></path></g><path fill-rule="evenodd" fill-opacity="1" d="M 151.222656 335.585938 L 215.058594 335.585938 C 224.425781 335.585938 232 343.09375 232 352.46875 L 232 402.296875 C 232 411.664062 224.425781 419.183594 215.058594 419.183594 L 151.222656 419.183594 C 141.847656 419.183594 134.269531 411.65625 134.269531 402.296875 L 134.269531 352.46875 C 134.269531 343.09375 141.847656 335.585938 151.222656 335.585938 Z M 151.222656 335.585938" fill="#f7b128"></path><path fill-rule="evenodd" fill-opacity="1" d="M 292.09375 335.585938 L 355.917969 335.585938 C 365.292969 335.585938 372.871094 343.09375 372.871094 352.46875 L 372.871094 402.296875 C 372.871094 411.664062 365.292969 419.183594 355.917969 419.183594 L 292.09375 419.183594 C 282.71875 419.183594 275.140625 411.65625 275.140625 402.296875 L 275.140625 352.46875 C 275.140625 343.09375 282.71875 335.585938 292.09375 335.585938 Z M 292.09375 335.585938" fill="#f7b128"></path><path fill-rule="evenodd" fill-opacity="1" d="M 432.964844 335.585938 C 423.585938 335.585938 416.011719 343.09375 416.011719 352.46875 L 416.011719 402.296875 C 416.011719 406.976562 417.914062 411.261719 420.996094 414.3125 C 442.273438 381.871094 472.667969 355.953125 508.546875 340.367188 C 505.511719 337.421875 501.378906 335.585938 496.789062 335.585938 Z M 432.964844 335.585938" fill="#f7b128"></path><path fill-rule="evenodd" fill-opacity="1" d="M 151.222656 469.171875 L 215.058594 469.171875 C 224.425781 469.171875 232 476.75 232 486.117188 L 232 535.90625 C 232 545.273438 224.425781 552.847656 215.058594 552.847656 L 151.222656 552.847656 C 141.847656 552.847656 134.269531 545.273438 134.269531 535.90625 L 134.269531 486.117188 C 134.269531 476.75 141.847656 469.171875 151.222656 469.171875 Z M 151.222656 469.171875" fill="#f7b128"></path><path fill-rule="evenodd" fill-opacity="1" d="M 292.09375 469.171875 L 355.917969 469.171875 C 365.292969 469.171875 372.871094 476.75 372.871094 486.117188 L 372.871094 535.90625 C 372.871094 545.273438 365.292969 552.847656 355.917969 552.847656 L 292.09375 552.847656 C 282.71875 552.847656 275.140625 545.273438 275.140625 535.90625 L 275.140625 486.117188 C 275.140625 476.75 282.71875 469.171875 292.09375 469.171875 Z M 292.09375 469.171875" fill="#f7b128"></path><path fill-rule="nonzero" fill-opacity="1" d="M 586.128906 415.5 C 578.65625 415.605469 572.683594 421.777344 572.769531 429.25 L 572.925781 528.757812 L 627.640625 583.226562 C 632.921875 588.648438 641.695312 588.699219 647.03125 583.273438 C 652.363281 577.886719 652.207031 569.160156 646.726562 563.9375 L 599.992188 517.441406 L 599.886719 429.191406 C 599.980469 421.585938 593.753906 415.367188 586.128906 415.5 Z M 586.128906 415.5" fill="#f7b128"></path></svg>