<svg version="1.0" preserveAspectRatio="xMidYMid meet" height="1350" viewBox="0 0 810 1012.49997" zoomAndPan="magnify" width="1080" xmlns:xlink="http://www.w3.org/1999/xlink" xmlns="http://www.w3.org/2000/svg"><defs><clipPath id="a16f4f154a"><path clip-rule="nonzero" d="M 12.957031 300 L 399 300 L 399 715 L 12.957031 715 Z M 12.957031 300"></path></clipPath></defs><path fill-rule="nonzero" fill-opacity="1" d="M 603.085938 430.394531 C 603.085938 426.875 600.234375 424.03125 596.71875 424.03125 C 593.207031 424.03125 590.355469 426.875 590.355469 430.394531 C 590.355469 527.855469 511.066406 607.144531 413.605469 607.144531 C 316.148438 607.144531 236.867188 527.859375 236.867188 430.394531 C 236.867188 332.933594 316.152344 253.648438 413.613281 253.648438 C 459.679688 253.648438 503.289062 271.277344 536.433594 303.296875 C 546.785156 313.191406 578.59375 350.691406 553.378906 418.042969 C 530.648438 478.753906 498.128906 480.742188 497.96875 480.757812 C 476.011719 480.757812 458.144531 462.886719 458.144531 440.929688 L 458.144531 406.402344 C 458.242188 403.65625 458.242188 400.953125 458.144531 398.273438 L 458.144531 332.191406 C 458.144531 328.671875 455.292969 325.828125 451.78125 325.828125 C 448.269531 325.828125 445.417969 328.671875 445.417969 332.191406 L 445.417969 355.167969 C 439.789062 347.121094 432.542969 341.261719 423.886719 338.167969 C 391.394531 326.546875 351.953125 356.578125 334.109375 406.503906 C 325.777344 429.796875 323.644531 453.835938 328.101562 474.183594 C 332.789062 495.597656 344.195312 510.550781 360.210938 516.269531 C 364.917969 517.957031 369.773438 518.765625 374.6875 518.765625 C 402.09375 518.765625 431.320312 493.601562 447.328125 454.777344 C 453.429688 477.046875 473.800781 493.480469 498.058594 493.480469 C 499.726562 493.453125 539.242188 492.085938 565.292969 422.503906 C 593.238281 347.855469 556.992188 305.34375 545.25 294.117188 C 509.742188 259.808594 462.996094 240.917969 413.605469 240.917969 C 309.128906 240.917969 224.128906 325.914062 224.128906 430.394531 C 224.128906 534.875 309.128906 619.871094 413.605469 619.871094 C 518.085938 619.871094 603.085938 534.875 603.085938 430.394531 Z M 603.085938 430.394531" fill="#fbb817"></path><path fill-rule="nonzero" fill-opacity="1" d="M 794.839844 297.605469 C 788.023438 271.511719 770.550781 250.917969 746.902344 241.097656 L 702.695312 222.722656 C 692.605469 218.519531 681.253906 219 670.71875 224.03125 C 659.949219 229.1875 651.347656 238.460938 646.484375 250.152344 L 626.347656 298.605469 C 621.488281 310.289062 620.992188 322.929688 624.941406 334.203125 C 628.804688 345.21875 636.484375 353.601562 646.566406 357.789062 C 668.378906 366.851562 681.476562 389.332031 679.941406 415.050781 C 678.386719 441.09375 673.050781 480.554688 656.40625 520.609375 C 639.769531 560.65625 615.570312 592.28125 598.203125 611.757812 C 581.054688 630.992188 555.886719 637.566406 534.074219 628.507812 C 529.464844 626.59375 524.660156 625.6875 519.863281 625.6875 C 502.710938 625.6875 485.621094 637.273438 477.863281 655.933594 L 457.730469 704.386719 C 447.808594 728.265625 456.878906 754.816406 477.953125 763.570312 L 522.167969 781.941406 C 545.808594 791.769531 572.730469 789.625 596.03125 776.042969 C 637.828125 751.699219 699.269531 694.699219 754.648438 561.425781 C 810.023438 428.167969 807.070312 344.398438 794.839844 297.605469 Z M 794.839844 297.605469" fill="#fbb817"></path><g clip-path="url(#a16f4f154a)"><path fill-rule="nonzero" fill-opacity="1" d="M 392.050781 634.90625 C 388.539062 634.90625 385.6875 637.75 385.6875 641.269531 L 385.6875 694.789062 L 304.152344 625.96875 C 303.003906 625 301.546875 624.46875 300.046875 624.46875 L 60.160156 624.46875 C 41.152344 624.460938 25.6875 609 25.6875 589.984375 L 25.6875 347.59375 C 25.6875 328.582031 41.152344 313.117188 60.160156 313.117188 L 244.578125 313.117188 C 248.09375 313.117188 250.945312 310.273438 250.945312 306.75 C 250.945312 303.230469 248.09375 300.386719 244.578125 300.386719 L 60.160156 300.386719 C 34.132812 300.386719 12.957031 321.570312 12.957031 347.59375 L 12.957031 589.984375 C 12.957031 616.015625 34.132812 637.1875 60.160156 637.1875 L 297.722656 637.1875 L 387.945312 713.347656 C 389.117188 714.339844 390.582031 714.847656 392.050781 714.847656 C 392.960938 714.847656 393.878906 714.65625 394.730469 714.257812 C 396.976562 713.214844 398.414062 710.960938 398.414062 708.484375 L 398.414062 641.269531 C 398.414062 637.75 395.5625 634.90625 392.050781 634.90625 Z M 392.050781 634.90625" fill="#fbb817"></path></g><path fill-rule="nonzero" fill-opacity="1" d="M 191.027344 395.726562 C 194.542969 395.726562 197.394531 392.882812 197.394531 389.363281 C 197.394531 385.84375 194.542969 383 191.027344 383 L 93.175781 383 C 89.660156 383 86.808594 385.84375 86.808594 389.363281 C 86.808594 392.882812 89.660156 395.726562 93.175781 395.726562 Z M 191.027344 395.726562" fill="#fbb817"></path><path fill-rule="nonzero" fill-opacity="1" d="M 51.5625 484.644531 C 51.5625 488.164062 54.414062 491.011719 57.929688 491.011719 L 205.679688 491.011719 C 209.191406 491.011719 212.042969 488.164062 212.042969 484.644531 C 212.042969 481.125 209.191406 478.28125 205.679688 478.28125 L 57.929688 478.28125 C 54.414062 478.28125 51.5625 481.125 51.5625 484.644531 Z M 51.5625 484.644531" fill="#fbb817"></path></svg>