<svg version="1.0" preserveAspectRatio="xMidYMid meet" height="964" viewBox="0 0 123.75 722.999978" zoomAndPan="magnify" width="165" xmlns:xlink="http://www.w3.org/1999/xlink" xmlns="http://www.w3.org/2000/svg"><defs><clipPath id="46f20c11a4"><path clip-rule="nonzero" d="M 3 5.195312 L 121 5.195312 L 121 254 L 3 254 Z M 3 5.195312"></path></clipPath><clipPath id="13255a291d"><path clip-rule="nonzero" d="M 3 573 L 121 573 L 121 690.808594 L 3 690.808594 Z M 3 573"></path></clipPath></defs><g clip-path="url(#46f20c11a4)"><path fill-rule="nonzero" fill-opacity="1" d="M 64.125 122.621094 L 64.125 253.398438 L 60.234375 253.398438 L 60.234375 122.621094 C 60.886719 122.636719 61.535156 122.652344 62.1875 122.652344 C 62.839844 122.652344 63.472656 122.636719 64.125 122.621094 Z M 62.1875 5.195312 C 60.285156 5.195312 58.386719 5.289062 56.492188 5.472656 C 54.597656 5.65625 52.71875 5.933594 50.851562 6.300781 C 48.984375 6.667969 47.136719 7.125 45.316406 7.671875 C 43.492188 8.21875 41.699219 8.851562 39.9375 9.570312 C 38.175781 10.292969 36.457031 11.097656 34.773438 11.984375 C 33.089844 12.875 31.453125 13.84375 29.863281 14.890625 C 28.277344 15.9375 26.742188 17.058594 25.261719 18.253906 C 23.78125 19.453125 22.363281 20.71875 21.007812 22.050781 C 19.648438 23.386719 18.359375 24.785156 17.140625 26.242188 C 15.917969 27.703125 14.769531 29.21875 13.699219 30.789062 C 12.625 32.359375 11.628906 33.980469 10.710938 35.648438 C 9.796875 37.316406 8.964844 39.023438 8.214844 40.773438 C 7.464844 42.523438 6.800781 44.304688 6.222656 46.117188 C 5.644531 47.929688 5.15625 49.769531 4.757812 51.628906 C 4.359375 53.488281 4.054688 55.367188 3.835938 57.257812 C 3.621094 59.148438 3.496094 61.042969 3.464844 62.945312 C 3.433594 64.851562 3.496094 66.75 3.648438 68.648438 C 3.800781 70.542969 4.046875 72.429688 4.382812 74.300781 C 4.71875 76.175781 5.144531 78.027344 5.660156 79.859375 C 6.175781 81.691406 6.78125 83.492188 7.472656 85.265625 C 8.164062 87.039062 8.941406 88.773438 9.800781 90.472656 C 10.660156 92.167969 11.601562 93.820312 12.621094 95.425781 C 13.644531 97.03125 14.738281 98.585938 15.910156 100.085938 C 17.082031 101.585938 18.324219 103.023438 19.636719 104.402344 C 20.949219 105.78125 22.324219 107.09375 23.761719 108.339844 C 25.203125 109.582031 26.699219 110.757812 28.25 111.855469 C 29.804688 112.957031 31.40625 113.976562 33.058594 114.921875 C 34.710938 115.863281 36.40625 116.726562 38.144531 117.503906 C 39.878906 118.285156 41.648438 118.976562 43.453125 119.585938 C 45.257812 120.191406 47.085938 120.710938 48.941406 121.140625 C 50.792969 121.566406 52.664062 121.90625 54.550781 122.152344 C 56.4375 122.402344 58.332031 122.554688 60.234375 122.621094 C 60.886719 122.636719 61.535156 122.652344 62.1875 122.652344 C 62.839844 122.652344 63.472656 122.636719 64.125 122.621094 C 66.027344 122.558594 67.921875 122.402344 69.808594 122.15625 C 71.695312 121.910156 73.566406 121.570312 75.421875 121.140625 C 77.273438 120.710938 79.101562 120.195312 80.90625 119.589844 C 82.710938 118.980469 84.480469 118.289062 86.21875 117.511719 C 87.953125 116.730469 89.648438 115.871094 91.300781 114.925781 C 92.957031 113.984375 94.558594 112.960938 96.113281 111.863281 C 97.664062 110.761719 99.164062 109.589844 100.601562 108.347656 C 102.042969 107.101562 103.417969 105.789062 104.730469 104.410156 C 106.042969 103.03125 107.285156 101.59375 108.457031 100.09375 C 109.628906 98.59375 110.726562 97.042969 111.746094 95.4375 C 112.765625 93.828125 113.707031 92.179688 114.570312 90.480469 C 115.429688 88.78125 116.207031 87.046875 116.898438 85.273438 C 117.589844 83.5 118.195312 81.699219 118.710938 79.867188 C 119.226562 78.035156 119.652344 76.183594 119.992188 74.308594 C 120.328125 72.4375 120.574219 70.550781 120.726562 68.65625 C 120.878906 66.757812 120.941406 64.859375 120.910156 62.953125 C 120.878906 61.050781 120.753906 59.15625 120.539062 57.265625 C 120.320312 55.375 120.015625 53.496094 119.617188 51.636719 C 119.21875 49.773438 118.730469 47.9375 118.15625 46.125 C 117.578125 44.308594 116.914062 42.527344 116.164062 40.78125 C 115.414062 39.03125 114.582031 37.320312 113.664062 35.652344 C 112.75 33.984375 111.753906 32.367188 110.679688 30.792969 C 109.605469 29.222656 108.460938 27.707031 107.238281 26.246094 C 106.015625 24.789062 104.730469 23.390625 103.371094 22.054688 C 102.015625 20.71875 100.597656 19.453125 99.117188 18.257812 C 97.636719 17.0625 96.101562 15.9375 94.511719 14.890625 C 92.925781 13.84375 91.289062 12.875 89.605469 11.988281 C 87.921875 11.097656 86.199219 10.292969 84.4375 9.574219 C 82.675781 8.851562 80.886719 8.21875 79.0625 7.671875 C 77.238281 7.125 75.394531 6.667969 73.527344 6.300781 C 71.660156 5.933594 69.777344 5.65625 67.882812 5.472656 C 65.988281 5.289062 64.089844 5.195312 62.1875 5.195312 Z M 62.1875 5.195312" fill="#fbb817"></path></g><path fill-rule="nonzero" fill-opacity="1" d="M 64.125 312.097656 L 64.125 442.875 L 60.234375 442.875 L 60.234375 312.097656 C 60.886719 312.113281 61.535156 312.128906 62.1875 312.128906 C 62.839844 312.128906 63.472656 312.113281 64.125 312.097656 Z M 62.1875 194.671875 C 60.285156 194.671875 58.386719 194.761719 56.492188 194.949219 C 54.597656 195.132812 52.71875 195.40625 50.851562 195.777344 C 48.984375 196.144531 47.136719 196.601562 45.316406 197.148438 C 43.492188 197.691406 41.699219 198.328125 39.9375 199.046875 C 38.175781 199.769531 36.457031 200.574219 34.773438 201.460938 C 33.089844 202.351562 31.453125 203.316406 29.863281 204.367188 C 28.277344 205.414062 26.742188 206.535156 25.261719 207.730469 C 23.78125 208.929688 22.363281 210.195312 21.007812 211.527344 C 19.648438 212.863281 18.359375 214.257812 17.140625 215.71875 C 15.917969 217.179688 14.769531 218.695312 13.699219 220.265625 C 12.625 221.835938 11.628906 223.457031 10.710938 225.125 C 9.796875 226.792969 8.964844 228.5 8.214844 230.25 C 7.460938 232 6.800781 233.78125 6.222656 235.59375 C 5.644531 237.40625 5.15625 239.246094 4.757812 241.105469 C 4.359375 242.964844 4.054688 244.84375 3.835938 246.734375 C 3.621094 248.625 3.496094 250.519531 3.464844 252.421875 C 3.433594 254.324219 3.496094 256.226562 3.648438 258.121094 C 3.800781 260.019531 4.046875 261.90625 4.382812 263.777344 C 4.71875 265.652344 5.144531 267.503906 5.660156 269.335938 C 6.175781 271.167969 6.78125 272.96875 7.472656 274.742188 C 8.164062 276.515625 8.941406 278.25 9.800781 279.949219 C 10.660156 281.644531 11.601562 283.296875 12.621094 284.902344 C 13.644531 286.507812 14.738281 288.0625 15.910156 289.5625 C 17.082031 291.0625 18.324219 292.5 19.636719 293.878906 C 20.949219 295.257812 22.324219 296.570312 23.761719 297.816406 C 25.203125 299.058594 26.699219 300.230469 28.25 301.332031 C 29.804688 302.429688 31.40625 303.453125 33.058594 304.398438 C 34.710938 305.339844 36.40625 306.203125 38.144531 306.980469 C 39.878906 307.761719 41.648438 308.453125 43.453125 309.058594 C 45.257812 309.667969 47.085938 310.183594 48.941406 310.613281 C 50.792969 311.042969 52.664062 311.382812 54.550781 311.628906 C 56.4375 311.878906 58.332031 312.03125 60.234375 312.097656 C 60.886719 312.113281 61.535156 312.128906 62.1875 312.128906 C 62.839844 312.128906 63.472656 312.113281 64.125 312.097656 C 66.027344 312.03125 67.921875 311.878906 69.808594 311.632812 C 71.695312 311.382812 73.566406 311.046875 75.421875 310.617188 C 77.273438 310.1875 79.101562 309.671875 80.90625 309.0625 C 82.710938 308.457031 84.480469 307.765625 86.21875 306.988281 C 87.953125 306.207031 89.648438 305.347656 91.300781 304.402344 C 92.957031 303.460938 94.558594 302.4375 96.113281 301.339844 C 97.664062 300.238281 99.160156 299.066406 100.601562 297.820312 C 102.042969 296.578125 103.417969 295.265625 104.730469 293.886719 C 106.042969 292.507812 107.285156 291.070312 108.457031 289.570312 C 109.628906 288.070312 110.722656 286.519531 111.746094 284.910156 C 112.765625 283.304688 113.707031 281.652344 114.570312 279.957031 C 115.429688 278.257812 116.207031 276.523438 116.898438 274.75 C 117.589844 272.976562 118.195312 271.175781 118.710938 269.34375 C 119.226562 267.511719 119.652344 265.660156 119.992188 263.785156 C 120.328125 261.914062 120.570312 260.027344 120.726562 258.132812 C 120.878906 256.234375 120.941406 254.332031 120.90625 252.429688 C 120.875 250.527344 120.753906 248.632812 120.539062 246.738281 C 120.320312 244.847656 120.015625 242.972656 119.617188 241.113281 C 119.21875 239.25 118.730469 237.414062 118.152344 235.601562 C 117.578125 233.785156 116.914062 232.003906 116.164062 230.253906 C 115.414062 228.507812 114.582031 226.796875 113.664062 225.128906 C 112.75 223.460938 111.753906 221.839844 110.679688 220.269531 C 109.605469 218.699219 108.457031 217.183594 107.238281 215.722656 C 106.015625 214.261719 104.726562 212.867188 103.371094 211.53125 C 102.015625 210.195312 100.597656 208.929688 99.117188 207.734375 C 97.636719 206.539062 96.101562 205.414062 94.511719 204.367188 C 92.925781 203.320312 91.289062 202.351562 89.605469 201.464844 C 87.921875 200.574219 86.199219 199.769531 84.4375 199.050781 C 82.675781 198.328125 80.886719 197.695312 79.0625 197.148438 C 77.238281 196.601562 75.394531 196.144531 73.527344 195.777344 C 71.660156 195.410156 69.777344 195.132812 67.882812 194.949219 C 65.988281 194.761719 64.089844 194.671875 62.1875 194.671875 Z M 62.1875 194.671875" fill="#ffd55c"></path><path fill-rule="nonzero" fill-opacity="1" d="M 64.125 501.570312 L 64.125 632.351562 L 60.234375 632.351562 L 60.234375 501.570312 C 60.886719 501.589844 61.535156 501.605469 62.1875 501.605469 C 62.839844 501.605469 63.472656 501.589844 64.125 501.570312 Z M 62.1875 384.148438 C 60.285156 384.148438 58.386719 384.238281 56.492188 384.421875 C 54.597656 384.609375 52.71875 384.882812 50.851562 385.25 C 48.984375 385.617188 47.136719 386.074219 45.316406 386.621094 C 43.492188 387.167969 41.699219 387.804688 39.9375 388.523438 C 38.175781 389.246094 36.457031 390.050781 34.773438 390.9375 C 33.089844 391.828125 31.453125 392.792969 29.863281 393.839844 C 28.277344 394.890625 26.742188 396.011719 25.261719 397.207031 C 23.78125 398.402344 22.363281 399.667969 21.007812 401.003906 C 19.648438 402.339844 18.359375 403.734375 17.140625 405.195312 C 15.917969 406.65625 14.769531 408.171875 13.699219 409.742188 C 12.625 411.3125 11.628906 412.933594 10.714844 414.601562 C 9.796875 416.269531 8.964844 417.976562 8.214844 419.726562 C 7.464844 421.476562 6.800781 423.257812 6.222656 425.070312 C 5.644531 426.882812 5.15625 428.71875 4.757812 430.582031 C 4.359375 432.441406 4.054688 434.316406 3.839844 436.207031 C 3.621094 438.097656 3.496094 439.996094 3.464844 441.898438 C 3.433594 443.800781 3.496094 445.703125 3.648438 447.597656 C 3.800781 449.496094 4.046875 451.378906 4.382812 453.253906 C 4.71875 455.125 5.144531 456.980469 5.660156 458.8125 C 6.179688 460.640625 6.78125 462.445312 7.472656 464.21875 C 8.164062 465.992188 8.941406 467.726562 9.800781 469.421875 C 10.660156 471.121094 11.601562 472.773438 12.621094 474.378906 C 13.644531 475.984375 14.738281 477.539062 15.910156 479.035156 C 17.082031 480.535156 18.324219 481.976562 19.636719 483.355469 C 20.949219 484.734375 22.324219 486.046875 23.761719 487.289062 C 25.203125 488.535156 26.699219 489.707031 28.25 490.808594 C 29.804688 491.90625 31.40625 492.929688 33.058594 493.871094 C 34.714844 494.816406 36.40625 495.679688 38.144531 496.457031 C 39.878906 497.234375 41.648438 497.929688 43.453125 498.535156 C 45.257812 499.144531 47.085938 499.660156 48.941406 500.089844 C 50.792969 500.519531 52.664062 500.859375 54.550781 501.105469 C 56.4375 501.351562 58.332031 501.507812 60.234375 501.570312 C 60.886719 501.589844 61.535156 501.605469 62.1875 501.605469 C 62.839844 501.605469 63.472656 501.589844 64.125 501.570312 C 66.027344 501.507812 67.921875 501.355469 69.808594 501.105469 C 71.695312 500.859375 73.566406 500.523438 75.421875 500.09375 C 77.273438 499.664062 79.101562 499.148438 80.90625 498.539062 C 82.710938 497.933594 84.480469 497.242188 86.21875 496.460938 C 87.953125 495.683594 89.648438 494.824219 91.300781 493.878906 C 92.957031 492.933594 94.558594 491.914062 96.113281 490.816406 C 97.664062 489.714844 99.160156 488.542969 100.601562 487.296875 C 102.042969 486.054688 103.417969 484.742188 104.730469 483.363281 C 106.042969 481.984375 107.285156 480.546875 108.457031 479.046875 C 109.628906 477.546875 110.722656 475.992188 111.746094 474.386719 C 112.765625 472.78125 113.707031 471.128906 114.570312 469.433594 C 115.429688 467.734375 116.207031 466 116.898438 464.226562 C 117.589844 462.453125 118.195312 460.652344 118.710938 458.820312 C 119.226562 456.988281 119.652344 455.136719 119.992188 453.261719 C 120.328125 451.390625 120.570312 449.503906 120.726562 447.605469 C 120.878906 445.710938 120.941406 443.808594 120.90625 441.90625 C 120.875 440.003906 120.753906 438.105469 120.539062 436.214844 C 120.320312 434.324219 120.015625 432.449219 119.617188 430.589844 C 119.21875 428.726562 118.730469 426.890625 118.152344 425.074219 C 117.578125 423.261719 116.914062 421.480469 116.164062 419.730469 C 115.414062 417.984375 114.582031 416.273438 113.664062 414.605469 C 112.75 412.9375 111.753906 411.316406 110.679688 409.746094 C 109.605469 408.175781 108.457031 406.660156 107.238281 405.199219 C 106.015625 403.738281 104.726562 402.34375 103.371094 401.007812 C 102.015625 399.671875 100.597656 398.40625 99.117188 397.210938 C 97.636719 396.011719 96.101562 394.890625 94.511719 393.84375 C 92.925781 392.796875 91.289062 391.828125 89.605469 390.941406 C 87.921875 390.050781 86.199219 389.246094 84.4375 388.523438 C 82.675781 387.804688 80.886719 387.171875 79.0625 386.625 C 77.238281 386.078125 75.394531 385.621094 73.527344 385.25 C 71.660156 384.882812 69.777344 384.609375 67.882812 384.425781 C 65.988281 384.238281 64.089844 384.148438 62.1875 384.148438 Z M 62.1875 384.148438" fill="#f5a623"></path><g clip-path="url(#13255a291d)"><path fill-rule="nonzero" fill-opacity="1" d="M 120.914062 632.351562 C 120.914062 634.277344 120.820312 636.195312 120.628906 638.109375 C 120.441406 640.023438 120.160156 641.921875 119.785156 643.808594 C 119.410156 645.695312 118.941406 647.558594 118.382812 649.398438 C 117.824219 651.238281 117.179688 653.050781 116.441406 654.824219 C 115.707031 656.601562 114.886719 658.339844 113.980469 660.035156 C 113.070312 661.730469 112.085938 663.378906 111.015625 664.980469 C 109.945312 666.578125 108.804688 668.121094 107.582031 669.609375 C 106.363281 671.09375 105.074219 672.519531 103.710938 673.878906 C 102.351562 675.238281 100.929688 676.527344 99.441406 677.75 C 97.957031 678.96875 96.414062 680.113281 94.8125 681.179688 C 93.214844 682.25 91.566406 683.238281 89.871094 684.144531 C 88.171875 685.050781 86.4375 685.871094 84.660156 686.609375 C 82.882812 687.34375 81.074219 687.992188 79.234375 688.550781 C 77.394531 689.109375 75.53125 689.574219 73.644531 689.949219 C 71.757812 690.324219 69.855469 690.609375 67.941406 690.796875 C 66.027344 690.984375 64.109375 691.078125 62.1875 691.078125 C 60.261719 691.078125 58.34375 690.984375 56.429688 690.796875 C 54.515625 690.609375 52.617188 690.324219 50.730469 689.949219 C 48.84375 689.574219 46.980469 689.109375 45.140625 688.550781 C 43.296875 687.992188 41.488281 687.34375 39.710938 686.609375 C 37.933594 685.871094 36.199219 685.050781 34.503906 684.144531 C 32.804688 683.238281 31.160156 682.25 29.558594 681.179688 C 27.960938 680.113281 26.417969 678.96875 24.929688 677.75 C 23.445312 676.527344 22.019531 675.238281 20.660156 673.878906 C 19.300781 672.519531 18.011719 671.09375 16.789062 669.609375 C 15.570312 668.121094 14.425781 666.578125 13.355469 664.980469 C 12.289062 663.378906 11.300781 661.730469 10.394531 660.035156 C 9.488281 658.339844 8.664062 656.601562 7.929688 654.824219 C 7.195312 653.046875 6.546875 651.238281 5.988281 649.398438 C 5.429688 647.558594 4.964844 645.695312 4.585938 643.808594 C 4.210938 641.921875 3.929688 640.023438 3.742188 638.109375 C 3.554688 636.195312 3.460938 634.277344 3.460938 632.351562 C 3.460938 630.429688 3.554688 628.511719 3.742188 626.597656 C 3.929688 624.683594 4.210938 622.78125 4.585938 620.894531 C 4.964844 619.007812 5.429688 617.144531 5.988281 615.304688 C 6.546875 613.464844 7.195312 611.65625 7.929688 609.878906 C 8.664062 608.101562 9.488281 606.363281 10.394531 604.667969 C 11.300781 602.972656 12.289062 601.324219 13.355469 599.726562 C 14.425781 598.125 15.570312 596.582031 16.789062 595.097656 C 18.011719 593.609375 19.300781 592.1875 20.660156 590.824219 C 22.019531 589.464844 23.445312 588.175781 24.929688 586.957031 C 26.417969 585.734375 27.960938 584.589844 29.558594 583.523438 C 31.160156 582.453125 32.804688 581.464844 34.503906 580.558594 C 36.199219 579.652344 37.933594 578.832031 39.710938 578.09375 C 41.488281 577.359375 43.296875 576.710938 45.140625 576.152344 C 46.980469 575.597656 48.84375 575.128906 50.730469 574.753906 C 52.617188 574.378906 54.515625 574.097656 56.429688 573.90625 C 58.34375 573.71875 60.261719 573.625 62.1875 573.625 C 64.109375 573.625 66.027344 573.71875 67.941406 573.90625 C 69.855469 574.097656 71.757812 574.378906 73.644531 574.753906 C 75.53125 575.128906 77.394531 575.597656 79.234375 576.152344 C 81.074219 576.710938 82.882812 577.359375 84.660156 578.09375 C 86.4375 578.832031 88.171875 579.652344 89.871094 580.558594 C 91.566406 581.464844 93.214844 582.453125 94.8125 583.523438 C 96.414062 584.589844 97.957031 585.734375 99.441406 586.957031 C 100.929688 588.175781 102.351562 589.464844 103.710938 590.824219 C 105.074219 592.1875 106.363281 593.609375 107.582031 595.097656 C 108.804688 596.582031 109.945312 598.125 111.015625 599.726562 C 112.085938 601.324219 113.070312 602.972656 113.980469 604.667969 C 114.886719 606.363281 115.707031 608.101562 116.441406 609.878906 C 117.179688 611.65625 117.824219 613.464844 118.382812 615.304688 C 118.941406 617.144531 119.410156 619.007812 119.785156 620.894531 C 120.160156 622.78125 120.441406 624.683594 120.628906 626.597656 C 120.820312 628.511719 120.914062 630.429688 120.914062 632.351562 Z M 120.914062 632.351562" fill="#f0841f"></path></g></svg>