<svg version="1.0" preserveAspectRatio="xMidYMid meet" height="1023" viewBox="0 0 757.5 767.249976" zoomAndPan="magnify" width="1010" xmlns:xlink="http://www.w3.org/1999/xlink" xmlns="http://www.w3.org/2000/svg"><defs><clipPath id="7ba930e829"><path clip-rule="nonzero" d="M 0.121094 0 L 756.878906 0 L 756.878906 766.5 L 0.121094 766.5 Z M 0.121094 0"></path></clipPath><clipPath id="7522dcadbf"><path clip-rule="nonzero" d="M 384 130 L 740.75 130 L 740.75 445 L 384 445 Z M 384 130"></path></clipPath><clipPath id="47973345f4"><path clip-rule="nonzero" d="M 6 209 L 476 209 L 476 690.765625 L 6 690.765625 Z M 6 209"></path></clipPath></defs><g clip-path="url(#7ba930e829)"><path fill-rule="nonzero" fill-opacity="1" d="M 0.121094 0 L 756.878906 0 L 756.878906 766.5 L 0.121094 766.5 Z M 0.121094 0" fill="#ffffff"></path><path fill-rule="nonzero" fill-opacity="1" d="M 0.121094 0 L 756.878906 0 L 756.878906 766.5 L 0.121094 766.5 Z M 0.121094 0" fill="#ffffff"></path></g><path fill-rule="nonzero" fill-opacity="1" d="M 107.277344 323.96875 C 109.234375 323.96875 111.222656 323.980469 113.21875 323.992188 C 122.652344 315.179688 128.582031 302.664062 128.582031 288.734375 C 128.582031 262.058594 106.960938 240.4375 80.28125 240.4375 C 53.609375 240.4375 31.984375 262.058594 31.984375 288.734375 C 31.984375 304.269531 39.34375 318.050781 50.738281 326.886719 C 64.460938 324.917969 79.765625 324.332031 95.125 324.070312 C 99.214844 324 103.277344 323.96875 107.277344 323.96875 Z M 107.277344 323.96875" fill="#fbb817"></path><path fill-rule="nonzero" fill-opacity="1" d="M 47.621094 382.039062 C 42.5625 388.523438 34.835938 392.332031 26.515625 392.335938 C 24.578125 392.335938 22.640625 392.125 20.742188 391.707031 C 18.757812 391.269531 16.878906 390.605469 15.109375 389.777344 C 9.136719 413.019531 5.1875 449.332031 8.875 505.820312 C 9.476562 515 17.113281 522.046875 26.179688 522.046875 C 26.5625 522.046875 26.941406 522.035156 27.332031 522.007812 C 29.601562 521.859375 31.738281 521.269531 33.675781 520.34375 L 43.226562 667.746094 C 44.035156 680.234375 54.816406 689.695312 67.296875 688.886719 C 72.257812 688.566406 76.730469 686.652344 80.28125 683.699219 C 83.835938 686.652344 88.304688 688.566406 93.265625 688.886719 C 105.75 689.695312 116.527344 680.234375 117.335938 667.746094 L 126.890625 520.34375 C 128.824219 521.269531 130.960938 521.859375 133.230469 522.007812 C 133.621094 522.035156 134 522.046875 134.382812 522.046875 C 143.449219 522.046875 151.085938 515.003906 151.6875 505.820312 C 156.050781 439.023438 149.738281 400.40625 142.015625 378.296875 C 130.746094 377.8125 119.417969 377.535156 108.570312 377.535156 C 74.863281 377.535156 55.226562 379.847656 47.621094 382.039062 Z M 47.621094 382.039062" fill="#fbb817"></path><g clip-path="url(#7522dcadbf)"><path fill-rule="nonzero" fill-opacity="1" d="M 455.777344 444.484375 L 690.359375 173.808594 L 740.996094 177.34375 L 707.960938 130.351562 L 601.4375 167.601562 L 646.652344 170.757812 L 384.96875 425.101562 Z M 455.777344 444.484375" fill="#fbb817"></path></g><path fill-rule="nonzero" fill-opacity="1" d="M 190.128906 223.140625 L 257.867188 209.425781 C 264.492188 197.867188 267.121094 183.949219 264.269531 169.863281 C 258.027344 139.046875 227.988281 119.121094 197.171875 125.359375 C 166.351562 131.601562 146.433594 161.636719 152.671875 192.457031 C 155.808594 207.960938 164.976562 220.707031 177.234375 228.75 C 179.59375 227.269531 181.835938 226.132812 183.882812 225.273438 C 185.90625 224.285156 188.007812 223.570312 190.128906 223.140625 Z M 190.128906 223.140625" fill="#fbb817"></path><g clip-path="url(#47973345f4)"><path fill-rule="nonzero" fill-opacity="1" d="M 345.480469 403.417969 C 345.480469 401.542969 345.285156 399.710938 344.964844 397.921875 C 344.914062 396.980469 344.820312 396.035156 344.625 395.085938 L 318.554688 266.300781 C 326.335938 276.453125 335.605469 293.089844 344.511719 320.289062 C 346.445312 326.195312 350.984375 330.886719 356.824219 333.011719 C 359.070312 333.828125 361.410156 334.234375 363.746094 334.234375 C 367.476562 334.234375 371.183594 333.199219 374.433594 331.179688 L 465.878906 274.339844 C 475.375 268.4375 478.285156 255.957031 472.386719 246.460938 C 466.484375 236.972656 454.003906 234.054688 444.507812 239.957031 L 374.125 283.707031 C 359.636719 248.992188 341.777344 226.125 320.871094 215.585938 C 306.5625 208.375 294.625 208.914062 288.394531 210.019531 C 288.011719 210.074219 287.628906 210.113281 287.242188 210.191406 L 191.433594 229.589844 C 189.710938 229.9375 188.101562 230.519531 186.601562 231.265625 C 173.066406 236.867188 147.503906 257.25 141.886719 331.242188 C 129.335938 330.757812 112.445312 330.351562 95.238281 330.648438 C 44.535156 331.515625 12.039062 336.921875 6.71875 361.171875 C 4.324219 372.09375 11.234375 382.886719 22.15625 385.28125 C 23.617188 385.605469 25.074219 385.757812 26.511719 385.757812 C 33.421875 385.753906 39.824219 382.195312 43.507812 376.484375 C 57.339844 371.085938 108.734375 369.308594 159.800781 372.652344 C 165.320312 373.011719 170.726562 371.109375 174.796875 367.378906 C 178.867188 363.652344 181.238281 358.421875 181.363281 352.90625 C 181.824219 332.214844 183.839844 316.152344 186.511719 303.839844 L 208.613281 413.007812 L 208.613281 659.527344 C 208.613281 676.808594 222.625 690.808594 239.902344 690.808594 C 257.171875 690.808594 271.183594 676.808594 271.183594 659.527344 L 271.183594 429.90625 L 282.910156 427.53125 L 282.910156 659.527344 C 282.910156 676.808594 296.921875 690.808594 314.199219 690.808594 C 331.46875 690.808594 345.480469 676.808594 345.480469 659.527344 Z M 345.480469 403.417969" fill="#fbb817"></path></g></svg>